<svg width="100" height="23" viewBox="0 0 100 23" fill="none" xmlns="http://www.w3.org/2000/svg">
<path d="M95.2327 9.09277C96.3536 9.09277 97.3739 9.44821 98.3125 10.1478C98.4939 10.2734 98.5048 10.4197 98.3534 10.5969L98.0206 11.0461C97.9299 11.1821 97.7984 11.1924 97.627 11.0667C96.8698 10.5135 96.0418 10.2312 95.163 10.2312C94.4864 10.2312 93.9514 10.3981 93.5468 10.7432C93.1323 11.0873 92.9311 11.5262 92.9311 12.0692C92.9311 12.7244 93.3755 13.2612 93.9165 13.5497C95.4031 14.3419 97.3112 14.243 98.5706 15.4948C98.7978 15.7204 99 15.9914 99.0997 16.3046C99.1943 16.6023 99.2422 16.9145 99.2422 17.2277C99.2422 18.1672 98.9193 18.9296 98.2627 19.5251C97.6061 20.1206 96.6466 20.4122 95.3951 20.4122C93.6176 20.4122 92.2645 19.7755 91.3359 18.5011C91.2552 18.3445 91.2851 18.2085 91.4265 18.1044L91.8809 17.7809C92.0323 17.6872 92.1639 17.7078 92.2745 17.8438C93.0616 18.7833 94.1228 19.2531 95.4549 19.2531C97.0601 19.2531 97.9797 18.5124 97.9797 17.3111C97.9797 16.7373 97.7775 16.319 97.3839 16.048C96.6018 15.5092 95.6472 15.332 94.7664 15.0425C93.9414 14.7705 93.0417 14.548 92.416 13.8845C91.6597 13.0819 91.4963 11.8075 91.9785 10.8102C92.1459 10.463 92.392 10.1684 92.678 9.92007C93.3147 9.36682 94.1726 9.09483 95.2327 9.09483V9.09277Z" fill="black" fill-opacity="0.08"/>
<path d="M87.4518 6.23047C87.6332 6.23047 87.7248 6.32422 87.7248 6.51276V9.43559H89.5223C89.6747 9.43559 89.7554 9.50977 89.7644 9.65812V10.2917C89.7644 10.4803 89.6837 10.574 89.5223 10.574H87.7248V16.4939C87.7248 18.0918 88.4721 18.9057 89.9567 18.9582C90.149 18.9582 90.2497 19.052 90.2497 19.2508V19.9195C90.2497 20.107 90.149 20.2017 89.9567 20.1914C88.9065 20.1605 88.0686 19.8576 87.4528 19.2828C86.837 18.7089 86.5242 17.8208 86.5242 16.6206V10.575H84.9888C84.8074 10.575 84.7157 10.4813 84.7257 10.2928V9.71891C84.7257 9.53037 84.8164 9.43662 84.9888 9.43662H86.5242V6.51379C86.5242 6.32525 86.6149 6.2315 86.7962 6.2315H87.4528L87.4518 6.23047Z" fill="black" fill-opacity="0.08"/>
<path d="M42.9426 9.1123C43.9519 9.1123 44.7301 9.4358 45.2751 10.0941C45.8201 10.7525 46.0931 11.6395 46.0931 12.7357V19.7631C46.0931 19.9609 45.9925 20.066 45.8002 20.066H45.1436C44.9722 20.066 44.8915 19.9722 44.8915 19.7837V13.0077C44.8915 11.1811 44.1442 10.2724 42.6397 10.2724C41.8924 10.2724 41.2667 10.533 40.7715 11.0554C40.2663 11.5777 39.9534 12.2556 39.8428 13.0911L39.782 19.8043C39.782 19.9815 39.6914 20.0649 39.51 20.0649H38.8743C38.682 20.0649 38.5814 19.9712 38.5814 19.7826L38.6422 12.9232C38.6422 11.2418 37.8541 10.2713 36.3296 10.2713C35.5424 10.2713 34.8858 10.5742 34.3707 11.1697C33.8456 11.7652 33.5427 12.4751 33.452 13.289V19.762C33.452 19.9598 33.3614 20.0649 33.1691 20.0649H32.5224C32.3311 20.0649 32.2295 19.9598 32.2394 19.762V9.7387C32.2394 9.54089 32.3301 9.4358 32.5224 9.4358H33.1691C33.3614 9.4358 33.462 9.53986 33.452 9.7387V11.3881C34.1894 9.87469 35.2794 9.12261 36.7242 9.1123C38.2187 9.1123 39.2281 9.9056 39.6426 11.2109C40.2992 9.92621 41.4799 9.1123 42.9446 9.1123H42.9426Z" fill="black" fill-opacity="0.08"/>
<path d="M63.4515 9.13531C63.7644 9.14561 64.0065 9.17755 64.1889 9.22906C64.3712 9.25997 64.431 9.36505 64.3812 9.54226L64.149 10.2315C64.0982 10.3572 63.9976 10.4087 63.8461 10.3984C63.6538 10.3675 63.4625 10.3562 63.2802 10.3562C62.1792 10.3562 61.3213 10.8569 60.7055 11.8696C60.0897 12.8823 59.7868 14.0939 59.7868 15.493V19.7634C59.7868 19.9612 59.6962 20.0663 59.5248 20.0663H58.8781C58.6858 20.0663 58.5852 19.9612 58.5852 19.7634V9.74007C58.5852 9.54123 58.6858 9.43717 58.8781 9.43717H59.5248C59.7061 9.43717 59.7978 9.54123 59.7868 9.74007V12.3713C60.4335 10.2202 61.6551 9.14561 63.4525 9.13428L63.4515 9.13531Z" fill="black" fill-opacity="0.08"/>
<path d="M66.5064 3.27686C66.6987 3.27686 66.7993 3.38091 66.7993 3.57975V15.336L72.0303 9.61395C72.1619 9.49959 72.2824 9.44705 72.3841 9.43674H73.4342C73.5957 9.43674 73.6764 9.60365 73.5658 9.71903L69.4866 14.1254L74.3439 19.7846C74.4545 19.899 74.3838 20.0669 74.2224 20.0669H73.1921C73.0706 20.0669 72.96 20.0041 72.8583 19.8794L68.6576 15.0248L66.7993 17.0297V19.765C66.7993 19.9628 66.6987 20.0679 66.5064 20.0679H65.8697C65.6784 20.0679 65.5768 19.9628 65.5768 19.765V3.57975C65.5768 3.38091 65.6774 3.27686 65.8697 3.27686H66.5064Z" fill="black" fill-opacity="0.08"/>
<path d="M52.0768 9.09277C54.8338 9.09277 56.3981 10.565 56.3981 13.5826V19.7847C56.3981 19.9733 56.3074 20.067 56.1261 20.067H55.4396C55.3051 20.067 55.2264 20.0011 55.2174 19.862V17.99C54.8238 18.805 54.2788 19.4097 53.5913 19.8064C52.8948 20.2133 52.1974 20.4122 51.4909 20.4122C50.3192 20.4122 49.3706 20.099 48.6333 19.4829C47.896 18.8668 47.5223 18.0107 47.5223 16.9248C47.5223 15.8389 47.9368 14.9302 48.7539 14.3563C49.5719 13.7825 50.9349 13.5002 52.8331 13.5002H55.1955C55.1556 11.3181 54.1254 10.2322 52.0957 10.2322C51.0764 10.2322 50.1568 10.6083 49.3387 11.3604C49.2072 11.4747 49.0867 11.4644 48.985 11.3398L48.6213 10.9112C48.4898 10.7752 48.4799 10.6505 48.6014 10.5351C48.985 10.1488 49.5002 9.81498 50.1358 9.52239C50.7715 9.2401 51.4182 9.0938 52.0748 9.0938L52.0768 9.09277ZM55.1965 14.5531H52.6119C51.0067 14.5531 49.9256 14.8138 49.4105 15.2836C48.8854 15.7534 48.724 16.2232 48.724 16.8815C48.724 18.396 49.8848 19.2727 51.7032 19.2727C52.7633 19.2727 53.6112 18.8658 54.2479 18.0405C54.8846 17.2256 55.1975 16.2757 55.1975 15.1898V14.5531H55.1965Z" fill="black" fill-opacity="0.08"/>
<path d="M79.4952 9.09277C80.8483 9.09277 82.0001 9.61511 82.9586 10.6588C83.9082 11.7127 84.3924 13.1963 84.4024 15.127C84.4024 15.3464 84.3017 15.4505 84.0895 15.4505H75.6073C75.7179 16.5364 76.1424 17.4337 76.8897 18.1549C77.6369 18.875 78.6064 19.2305 79.7871 19.2305C80.7975 19.2305 81.6852 18.9276 82.4535 18.3115C82.6248 18.1971 82.7464 18.2177 82.8271 18.3537L83.1599 18.8658C83.2705 19.0018 83.2506 19.1367 83.119 19.2727C82.2103 20.0351 81.0994 20.4111 79.7871 20.4111C78.182 20.4111 76.8787 19.8682 75.8594 18.7823C74.8391 17.6964 74.324 16.3499 74.324 14.7417C74.324 13.1334 74.8092 11.7869 75.7777 10.7113C76.7372 9.63572 77.9787 9.09277 79.4932 9.09277H79.4952ZM79.4753 10.2518C78.3444 10.2518 77.4257 10.6279 76.7083 11.3789C75.9919 12.1413 75.5973 13.1334 75.5475 14.3759H83.1818C83.1011 13.1334 82.7175 12.1413 82.031 11.3789C81.3345 10.6268 80.4856 10.2518 79.4763 10.2518H79.4753Z" fill="black" fill-opacity="0.08"/>
<path d="M17.0558 6.01283V2.40179C17.0558 1.95363 17.3706 1.61468 17.8041 1.61468L20.299 1.58789C20.7713 1.58789 21.1131 1.91345 21.1131 2.40282V6.01489H23.2931C23.6987 6.00665 24.0335 6.34045 24.0414 6.76183V8.56786C24.0414 8.98821 23.7096 9.32922 23.3031 9.32819C23.3001 9.32819 23.2961 9.32819 23.2931 9.32819H21.1131V14.2981C21.1131 15.0646 21.3333 15.5818 21.7816 15.9074C22.2071 16.2165 22.8368 16.3514 23.6797 16.3607C23.7126 16.3607 24.0683 16.3607 24.1022 16.3607C24.426 16.3607 24.9033 16.8624 24.9033 17.2436V19.4164C24.9033 19.7605 24.3672 20.2448 24.1022 20.2448C24.0843 20.2448 23.7435 20.2448 23.7256 20.2448C22.8717 20.2417 22.0696 20.1716 21.3093 20.0088C20.5919 19.8553 19.9124 19.6194 19.2628 19.2804C17.8967 18.5747 17.0568 17.1756 17.0568 15.3294V9.32819H15.622C15.3928 9.32819 15.1308 9.36013 14.9176 9.26122C14.8488 9.39619 14.7791 9.53012 14.7103 9.66405L14.4901 10.0906C14.3954 10.274 14.3008 10.4573 14.2061 10.6407C14.0935 10.8581 13.981 11.0755 13.8694 11.2929C13.7428 11.5381 13.6163 11.7823 13.4897 12.0275C13.3522 12.2933 13.2157 12.558 13.0782 12.8238C12.9338 13.103 12.7903 13.3822 12.6458 13.6614C12.4983 13.9468 12.3509 14.2332 12.2024 14.5186C12.0549 14.804 11.9075 15.0904 11.76 15.3758C11.6126 15.6612 11.4721 15.9331 11.3276 16.2123C11.1831 16.4915 11.0536 16.7419 10.9171 17.0077C10.7905 17.2519 10.665 17.496 10.5385 17.7402C10.4269 17.9566 10.3143 18.174 10.2027 18.3903C10.108 18.5727 10.0144 18.755 9.9197 18.9374C9.84696 19.0785 9.77423 19.2197 9.70149 19.3608C9.65367 19.4535 9.60584 19.5462 9.55702 19.64L9.49723 19.7554C9.35276 20.0676 9.14252 20.2303 8.85357 20.2303C8.56462 20.2169 8.34143 20.0676 8.184 19.7822L1.15752 6.89576C0.881518 6.36621 1.0519 6.01283 1.61685 6.01283H4.68969C5.20183 6.01283 5.58245 6.2704 5.81859 6.78655L8.82567 13.6841L11.7281 6.75977C11.9125 6.257 12.2532 6.01283 12.7524 6.01283H17.0558Z" fill="black" fill-opacity="0.08"/>
<path fill-rule="evenodd" clip-rule="evenodd" d="M25.9585 18.2994C25.9585 19.3719 25.1176 20.2415 24.0803 20.2415C23.0431 20.2415 22.2021 19.3719 22.2021 18.2994C22.2021 17.227 23.0431 16.3574 24.0803 16.3574C25.1176 16.3574 25.9585 17.227 25.9585 18.2994Z" fill="#D7D9DE"/>
</svg>
