<svg width="16" height="16" viewBox="0 0 16 16" fill="none" xmlns="http://www.w3.org/2000/svg">
<g clip-path="url(#clip0_9076_31916)">
<path d="M10.5703 13.0004V14.12H5.42963V13.0004H10.5703ZM5.42963 1.88013H10.5703C11.2081 1.88013 11.7984 2.21783 12.1218 2.76763L14.6632 7.08716C14.9946 7.65046 14.9946 8.34964 14.6632 8.91294L12.1218 13.2325C11.7984 13.7823 11.2081 14.12 10.5703 14.12V13.0004C10.8112 13.0004 11.0348 12.8729 11.157 12.6653L13.6976 8.34497C13.8228 8.13217 13.8228 7.86793 13.6976 7.65513L11.157 3.3356C11.0348 3.12789 10.8112 3.00044 10.5703 3.00044H5.42963C5.18866 3.00044 4.96587 3.1279 4.84369 3.3356L2.30229 7.65513C2.1771 7.86793 2.1771 8.13216 2.30229 8.34497L4.84369 12.6653C4.96592 12.8727 5.18882 13.0004 5.42963 13.0004V14.12L5.31088 14.1161C4.75863 14.0797 4.25362 13.7907 3.94213 13.3333L3.87807 13.2325L1.33666 8.91294C1.00529 8.34962 1.00529 7.65047 1.33666 7.08716L3.87807 2.76763C4.18132 2.2521 4.71914 1.92302 5.31088 1.88403L5.42963 1.88013Z" fill="#7A8699"/>
<path d="M9.23989 8.00005C9.23989 7.31522 8.68487 6.76021 8.00005 6.76021C7.31522 6.76021 6.76021 7.31522 6.76021 8.00005C6.76021 8.68487 7.31522 9.23989 8.00005 9.23989C8.68487 9.23989 9.23989 8.68487 9.23989 8.00005ZM10.3602 8.00005C10.3602 9.30343 9.30343 10.3602 8.00005 10.3602C6.69667 10.3602 5.63989 9.30343 5.63989 8.00005C5.63989 6.69667 6.69667 5.63989 8.00005 5.63989C9.30343 5.63989 10.3602 6.69667 10.3602 8.00005Z" fill="#7A8699"/>
</g>
<defs>
<clipPath id="clip0_9076_31916">
<rect width="16" height="16" fill="white"/>
</clipPath>
</defs>
</svg>
