<svg preserveAspectRatio="none" width="100%" height="100%" overflow="visible" style="display: block;" viewBox="0 0 10.4 5.8797" fill="none" xmlns="http://www.w3.org/2000/svg">
<path id="Vector" d="M10.1999 1.16005L5.67971 5.68027C5.61672 5.74348 5.54187 5.79364 5.45945 5.82786C5.37703 5.86208 5.28867 5.8797 5.19943 5.8797C5.1102 5.8797 5.02183 5.86208 4.93942 5.82786C4.857 5.79364 4.78215 5.74348 4.71916 5.68027L0.198936 1.16005C0.0715595 1.03267 -1.89806e-09 0.859912 0 0.679775C1.89806e-09 0.499637 0.0715595 0.326878 0.198936 0.199501C0.326313 0.0721244 0.499072 0.000565151 0.67921 0.000565149C0.859348 0.000565147 1.03211 0.0721244 1.15948 0.199501L5.2 4.24002L9.24052 0.198936C9.36789 0.0715597 9.54065 0 9.72079 0C9.90093 0 10.0737 0.0715597 10.2011 0.198936C10.3284 0.326313 10.4 0.499072 10.4 0.67921C10.4 0.859348 10.3284 1.03211 10.2011 1.15948L10.1999 1.16005Z" fill="var(--fill-0, #282D34)"/>
</svg>
