<svg preserveAspectRatio="none" width="100%" height="100%" overflow="visible" style="display: block;" viewBox="0 0 21.4286 18.6345" fill="none" xmlns="http://www.w3.org/2000/svg">
<g id="Group 2087327648">
<path id="Vector" d="M15.4714 1.37023e-08H10.5857C10.4253 -2.99141e-05 10.2685 0.0489657 10.135 0.140841C10.0014 0.232716 9.89698 0.363379 9.83486 0.516442C9.29743 1.84304 8.61172 1.99744 8.14286 1.99744C7.674 1.99744 6.98829 1.84304 6.45086 0.516442C6.38874 0.363379 6.28434 0.232716 6.15076 0.140841C6.01718 0.0489657 5.86037 -2.99141e-05 5.7 1.37023e-08H0.814286C0.598324 1.37023e-08 0.391207 0.0888145 0.238499 0.246906C0.0857905 0.404997 0 0.619414 0 0.842989V17.7915C0 18.2574 0.364286 18.6345 0.814286 18.6345H15.4714C15.5784 18.6345 15.6843 18.6127 15.783 18.5703C15.8818 18.528 15.9716 18.4659 16.0472 18.3876C16.1228 18.3093 16.1828 18.2164 16.2237 18.1141C16.2647 18.0118 16.2857 17.9022 16.2857 17.7915V0.842989C16.2857 0.732286 16.2647 0.622667 16.2237 0.520391C16.1828 0.418115 16.1228 0.325184 16.0472 0.246906C15.9716 0.168627 15.8818 0.106533 15.783 0.0641688C15.6843 0.0218046 15.5784 1.09712e-08 15.4714 1.37023e-08Z" fill="url(#paint0_linear_0_1319)"/>
<g id="Group 2087327641">
<foreignObject x="9.85714" y="7.06306" width="12.8571" height="12.8571"><div xmlns="http://www.w3.org/1999/xhtml" style="backdrop-filter:blur(0.64px);clip-path:url(#bgblur_0_0_1319_clip_path);height:100%;width:100%"></div></foreignObject><circle id="Ellipse 11428" data-figma-bg-blur-radius="1.28571" cx="16.2857" cy="13.4916" r="4.97143" transform="rotate(-90 16.2857 13.4916)" fill="var(--fill-0, #23E48F)" fill-opacity="0.6" stroke="url(#paint1_linear_0_1319)" stroke-width="0.342857"/>
<path id="Vector_2" d="M16.3559 10.8171C16.5124 10.8089 16.6478 10.9306 16.672 11.0943L16.6753 11.1277L16.6867 11.3441C17.3077 11.3958 17.8399 11.7008 18.0319 12.171C18.0996 12.3364 18.0305 12.5286 17.8776 12.6002C17.7344 12.6675 17.5683 12.6049 17.492 12.4605L17.4784 12.4304C17.3731 12.173 16.9325 11.9646 16.4102 11.992C15.7297 12.0276 15.3914 12.2594 15.3827 12.6609C15.3756 12.9907 15.7431 13.1904 16.4046 13.1694L16.4715 13.1664C17.5141 13.1118 18.2531 13.4739 18.2971 14.3142C18.3366 15.0683 17.7792 15.4975 16.9106 15.6173L16.9215 15.8255C16.931 16.0058 16.8033 16.159 16.6363 16.1677C16.4798 16.1759 16.3444 16.0542 16.3203 15.8905L16.3172 15.8572L16.3061 15.645C15.6451 15.6045 15.0757 15.3103 14.8619 14.8443C14.7877 14.6821 14.8485 14.4866 14.9986 14.4079C15.1388 14.3337 15.3075 14.3885 15.3892 14.5293L15.4041 14.5586C15.5222 14.8153 16.0023 15.0233 16.5676 14.9936C17.3196 14.9542 17.7115 14.7083 17.6925 14.3458C17.6741 13.9948 17.2845 13.7931 16.5777 13.816L16.506 13.8192C15.4974 13.872 14.7586 13.4923 14.7775 12.6404C14.7937 11.9053 15.2937 11.4855 16.0817 11.3686L16.0707 11.1594C16.0613 10.9791 16.189 10.8259 16.3559 10.8171Z" fill="var(--fill-0, white)" stroke="var(--stroke-0, white)" stroke-width="0.171429"/>
</g>
<path id="Vector 1228" d="M5.13712 9.21078L7.34399 11.3911L11.4124 7.24342" stroke="var(--stroke-0, white)" stroke-width="1.28571" stroke-linecap="round" stroke-linejoin="round"/>
</g>
<defs>
<clipPath id="bgblur_0_0_1319_clip_path" transform="translate(-9.85714 -7.06306)"><circle cx="16.2857" cy="13.4916" r="4.97143" transform="rotate(-90 16.2857 13.4916)"/>
</clipPath><linearGradient id="paint0_linear_0_1319" x1="5.33548e-08" y1="10.6566" x2="14.3752" y2="15.404" gradientUnits="userSpaceOnUse">
<stop stop-color="#2DA4FF"/>
<stop offset="1" stop-color="#1B51FF"/>
</linearGradient>
<linearGradient id="paint1_linear_0_1319" x1="16.2857" y1="8.34877" x2="20.0714" y2="17.2059" gradientUnits="userSpaceOnUse">
<stop stop-color="white" stop-opacity="0.38"/>
<stop offset="1" stop-color="#48D8A6"/>
</linearGradient>
</defs>
</svg>
