<svg preserveAspectRatio="none" width="100%" height="100%" overflow="visible" style="display: block;" viewBox="0 0 15 14" fill="none" xmlns="http://www.w3.org/2000/svg">
<path id="Vector" d="M8.01367 0.311724L9.88706 4.02206C9.97061 4.1878 10.132 4.3023 10.3188 4.32872L14.5086 4.9244C14.9788 4.99085 15.1664 5.55611 14.8264 5.88039L11.7948 8.76922C11.6596 8.89812 11.5982 9.08307 11.6301 9.26563L12.3461 13.3435C12.4263 13.8015 11.9348 14.1505 11.5138 13.9344L7.76621 12.0088C7.5991 11.9231 7.40005 11.9231 7.23293 12.0088L3.48619 13.9336C3.06515 14.1497 2.57365 13.8007 2.65392 13.3427L3.36905 9.26422C3.401 9.08247 3.33956 8.89671 3.2044 8.7678L0.173579 5.88062C-0.166369 5.55636 0.0212176 4.99189 0.491403 4.92462L4.68125 4.32894C4.86801 4.30252 5.02939 4.18803 5.11294 4.02229L6.98633 0.311949C7.19603 -0.103583 7.80302 -0.104383 8.01354 0.311949L8.01367 0.311724Z" fill="var(--fill-0, #0A36C7)"/>
</svg>
