<svg preserveAspectRatio="none" width="100%" height="100%" overflow="visible" style="display: block;" viewBox="0 0 24 24" fill="none" xmlns="http://www.w3.org/2000/svg">
<g id="Frame">
<path id="Vector" d="M21.7248 8.32163C22.0531 8.32163 22.3314 8.4251 22.5597 8.63204C22.7881 8.83899 22.9023 9.09231 22.9023 9.39201V15.7072C22.9023 15.9926 22.7881 16.2388 22.5597 16.4457C22.3314 16.6527 22.0531 16.7561 21.7248 16.7561H21.3395C21.0113 16.7561 20.733 16.6527 20.5046 16.4457C20.2763 16.2388 20.1621 15.9926 20.1621 15.7072V9.39201C20.1621 9.09229 20.2763 8.83897 20.5046 8.63204C20.733 8.42511 21.0113 8.32164 21.3395 8.32163H21.7248ZM4.36351 8.32163C4.69176 8.32163 4.96292 8.4251 5.17699 8.63204C5.39107 8.83899 5.4981 9.09231 5.4981 9.39201V15.7072C5.4981 15.9926 5.39107 16.2388 5.17699 16.4457C4.96292 16.6527 4.69176 16.7561 4.36351 16.7561H3.97817C3.64992 16.7561 3.37163 16.6527 3.14328 16.4457C2.91493 16.2388 2.80077 15.9926 2.80078 15.7072V9.39201C2.80078 9.09229 2.91495 8.83897 3.1433 8.63204C3.37165 8.42511 3.64995 8.32164 3.97819 8.32163H4.36351ZM16.1804 3.35513C16.4372 3.46931 16.7048 3.6263 16.9831 3.82609C17.2614 4.02587 17.529 4.26135 17.7859 4.53252C18.0428 4.80368 18.2676 5.09982 18.4602 5.42094C18.6529 5.74206 18.7921 6.08101 18.8777 6.43779H6.71831C6.94666 5.68139 7.30702 5.06058 7.79939 4.57536C8.29176 4.09013 8.78769 3.7048 9.28719 3.41936L8.19542 1.70675C8.16688 1.67821 8.16331 1.6247 8.18473 1.54623C8.20615 1.46776 8.28107 1.38569 8.4095 1.30002C8.52368 1.20012 8.63071 1.15374 8.73061 1.16087C8.83051 1.168 8.89473 1.18584 8.92326 1.2144L10.0365 2.96981C10.4361 2.78426 10.8571 2.64154 11.2995 2.54164C11.7419 2.44174 12.1986 2.39179 12.6696 2.39179C13.64 2.39179 14.5463 2.5916 15.3883 2.99122L16.5229 1.2144C16.5514 1.18586 16.605 1.17158 16.6834 1.17158C16.7619 1.17158 16.8797 1.2144 17.0367 1.30005C17.1794 1.37138 17.2614 1.4356 17.2828 1.49269C17.3042 1.54979 17.3007 1.59261 17.2721 1.62116L16.1804 3.35513ZM10.2077 5.19617C10.3932 5.19617 10.5502 5.13194 10.6787 5.0035C10.8071 4.87505 10.8713 4.71806 10.8713 4.53254C10.8713 4.34701 10.8071 4.19002 10.6787 4.06158C10.5502 3.93313 10.3932 3.86891 10.2077 3.86891C10.0222 3.86891 9.8652 3.93313 9.73674 4.06158C9.60828 4.19002 9.54407 4.34701 9.54409 4.53254C9.54412 4.71806 9.60834 4.87505 9.73674 5.0035C9.86515 5.13194 10.0221 5.19617 10.2077 5.19617ZM15.4739 5.11053C15.6595 5.11053 15.8164 5.04631 15.9449 4.91788C16.0733 4.78944 16.1375 4.63245 16.1375 4.4469C16.1375 4.26134 16.0733 4.10435 15.9449 3.97594C15.8165 3.84752 15.6595 3.7833 15.4739 3.78329C15.2884 3.78327 15.1314 3.84749 15.0029 3.97594C14.8745 4.10438 14.8103 4.26137 14.8103 4.4469C14.8103 4.63242 14.8745 4.78942 15.0029 4.91788C15.1314 5.04634 15.2884 5.11055 15.4739 5.11053ZM18.8777 7.78646L18.8991 17.4198C18.8991 17.7337 18.7956 17.9977 18.5887 18.2118C18.3818 18.4259 18.1284 18.533 17.8287 18.5329H17.529V21.53C17.529 21.8154 17.4256 22.0651 17.2186 22.2792C17.0117 22.4933 16.7583 22.6003 16.4586 22.6003H15.8379C15.5524 22.6003 15.3062 22.4933 15.0993 22.2792C14.8923 22.0651 14.7889 21.8154 14.7889 21.53V18.5329H10.8499V21.53C10.8499 21.8154 10.7465 22.0651 10.5395 22.2792C10.3326 22.4933 10.0793 22.6003 9.77956 22.6003H9.15877C8.87335 22.6003 8.62716 22.4933 8.42022 22.2792C8.21328 22.0651 8.10981 21.8154 8.10982 21.53V18.5329H7.87433C7.57463 18.5329 7.32131 18.4259 7.11437 18.2118C6.90742 17.9977 6.80396 17.7337 6.80397 17.4197V7.78644H18.8777L18.8777 7.78646Z" fill="var(--fill-0, white)"/>
</g>
</svg>
