<svg preserveAspectRatio="none" width="100%" height="100%" overflow="visible" style="display: block;" viewBox="0 0 20.5714 20.5714" fill="none" xmlns="http://www.w3.org/2000/svg">
<g id="Group 2087327643">
<circle id="Ellipse 11429" cx="10.2857" cy="10.2857" r="10.2857" fill="url(#paint0_linear_0_1273)"/>
<path id="Vector" d="M9.98867 5.1296C10.2904 5.11379 10.5514 5.34835 10.598 5.66398L10.6045 5.72829L10.6263 6.14554C11.8236 6.24518 12.8495 6.83323 13.2197 7.73958C13.3502 8.05856 13.2171 8.42911 12.9223 8.56713C12.6462 8.69693 12.3259 8.57615 12.1789 8.29785L12.1526 8.23976C11.9497 7.74356 11.1002 7.34176 10.0934 7.39452C8.78131 7.46328 8.1293 7.91016 8.11246 8.68422C8.09871 9.32004 8.80725 9.70492 10.0826 9.66446L10.2115 9.65873C12.2215 9.5534 13.6462 10.2514 13.7311 11.8714C13.8072 13.3253 12.7325 14.1528 11.0581 14.3838L11.0791 14.785C11.0973 15.1327 10.8511 15.4279 10.5293 15.4448C10.2275 15.4606 9.96649 15.2261 9.91995 14.9104L9.914 14.8461L9.89256 14.4371C8.61828 14.3591 7.52059 13.7919 7.10837 12.8934C6.96528 12.5808 7.08258 12.2038 7.372 12.0521C7.64224 11.9092 7.96738 12.0147 8.12487 12.2862L8.15369 12.3426C8.38132 12.8375 9.30688 13.2385 10.3967 13.1814C11.8465 13.1054 12.6021 12.6313 12.5654 11.9325C12.53 11.2558 11.7788 10.867 10.4163 10.911L10.278 10.9172C8.3336 11.0191 6.9092 10.2869 6.94569 8.64452C6.97693 7.22737 7.94094 6.41815 9.45997 6.1927L9.43884 5.78937C9.42062 5.44175 9.66683 5.14647 9.98867 5.1296Z" fill="var(--fill-0, white)" stroke="var(--stroke-0, white)" stroke-width="0.171429"/>
</g>
<defs>
<linearGradient id="paint0_linear_0_1273" x1="6.73956e-08" y1="11.7643" x2="17.6223" y2="18.4234" gradientUnits="userSpaceOnUse">
<stop stop-color="#2DA4FF"/>
<stop offset="1" stop-color="#1B51FF"/>
</linearGradient>
</defs>
</svg>
