<svg preserveAspectRatio="none" width="100%" height="100%" overflow="visible" style="display: block;" viewBox="0 0 16 16" fill="none" xmlns="http://www.w3.org/2000/svg">
<g id="Icon">
<path id="Vector" d="M13.3327 6.66659C13.3327 9.99525 9.64002 13.4619 8.40002 14.5326C8.2845 14.6194 8.14388 14.6664 7.99935 14.6664C7.85482 14.6664 7.7142 14.6194 7.59868 14.5326C6.35868 13.4619 2.66602 9.99525 2.66602 6.66659C2.66602 5.2521 3.22792 3.89554 4.22811 2.89535C5.22831 1.89516 6.58486 1.33325 7.99935 1.33325C9.41384 1.33325 10.7704 1.89516 11.7706 2.89535C12.7708 3.89554 13.3327 5.2521 13.3327 6.66659Z" stroke="var(--stroke-0, #282D34)" stroke-width="1.33333" stroke-linecap="round" stroke-linejoin="round"/>
<path id="Vector_2" d="M8 8.66667C9.10457 8.66667 10 7.77124 10 6.66667C10 5.5621 9.10457 4.66667 8 4.66667C6.89543 4.66667 6 5.5621 6 6.66667C6 7.77124 6.89543 8.66667 8 8.66667Z" stroke="var(--stroke-0, #282D34)" stroke-width="1.33333" stroke-linecap="round" stroke-linejoin="round"/>
</g>
</svg>
