<svg preserveAspectRatio="none" width="100%" height="100%" overflow="visible" style="display: block;" viewBox="0 0 5.87977 10.4" fill="none" xmlns="http://www.w3.org/2000/svg">
<path id="Vector" d="M5.68081 9.24039C5.8082 9.36778 5.87977 9.54056 5.87977 9.72072C5.87977 9.90087 5.8082 10.0737 5.68081 10.201C5.55342 10.3284 5.38065 10.4 5.20049 10.4C5.02033 10.4 4.84755 10.3284 4.72016 10.201L0.199446 5.68033C0.136228 5.61733 0.0860687 5.54247 0.0518433 5.46004C0.0176178 5.37762 0 5.28925 0 5.2C0 5.11075 0.0176178 5.02238 0.0518433 4.93996C0.0860687 4.85753 0.136228 4.78267 0.199446 4.71967L4.72016 0.198957C4.84755 0.0715671 5.02033 -2.68455e-09 5.20049 0C5.38065 2.68455e-09 5.55342 0.0715673 5.68081 0.198958C5.8082 0.326348 5.87977 0.499126 5.87977 0.679284C5.87977 0.859441 5.8082 1.03222 5.68081 1.15961L1.64099 5.19944L5.68081 9.24039Z" fill="var(--fill-0, #7A8699)"/>
</svg>
