<svg preserveAspectRatio="none" width="100%" height="100%" overflow="visible" style="display: block;" viewBox="0 0 50 50" fill="none" xmlns="http://www.w3.org/2000/svg">
<g id="Group 1000005595">
<circle id="Ellipse 1928" cx="25" cy="25" r="25" fill="var(--fill-0, white)"/>
<path id="Vector" d="M27.0263 24.9627L34.2465 14.9933C34.6611 14.4209 34.5331 13.6208 33.9607 13.2062C33.3881 12.7918 32.5883 12.9196 32.1736 13.492L25.4464 22.7811L18.7187 13.4922C18.304 12.9196 17.5038 12.7918 16.9315 13.2064C16.3593 13.621 16.2313 14.4211 16.6457 14.9935L23.866 24.9629L16.6457 34.9325C16.2311 35.5049 16.3591 36.305 16.9315 36.7196C17.1585 36.8839 17.4209 36.9629 17.6813 36.9629C18.0774 36.9629 18.4683 36.7793 18.7187 36.4338L25.4464 27.1447L32.1741 36.4338C32.4244 36.7793 32.8151 36.9629 33.2115 36.9629C33.4717 36.9629 33.7343 36.8839 33.961 36.7196C34.5335 36.305 34.6614 35.5049 34.2468 34.9325L27.0263 24.9627Z" fill="var(--fill-0, black)"/>
</g>
</svg>
