<svg preserveAspectRatio="none" width="100%" height="100%" overflow="visible" style="display: block;" viewBox="0 0 50 50" fill="none" xmlns="http://www.w3.org/2000/svg">
<g id="hover">
<circle id="Ellipse 1928" cx="25" cy="25" r="25" fill="var(--fill-0, white)"/>
<path id="Vector" d="M31.0331 24.053C31.0031 21.0133 33.5118 19.556 33.6236 19.4833C32.2136 17.42 30.0176 17.138 29.2353 17.105C27.3663 16.916 25.5888 18.2053 24.6401 18.2053C23.6943 18.2053 22.2303 17.1328 20.6801 17.1613C18.6431 17.1913 16.7643 18.3455 15.7158 20.1703C13.5993 23.843 15.1736 29.2835 17.2368 32.2625C18.2448 33.7205 19.4471 35.3578 21.0251 35.2993C22.5446 35.2385 23.1198 34.316 24.9566 34.316C26.7933 34.316 27.3101 35.2993 28.9188 35.2693C30.5538 35.2385 31.5903 33.7835 32.5916 32.321C33.7488 30.6298 34.2258 28.9918 34.2536 28.9078C34.2176 28.8913 31.0646 27.6838 31.0331 24.053ZM28.0113 15.1333C28.8491 14.117 29.4146 12.707 29.2601 11.3008C28.0533 11.3503 26.5908 12.1048 25.7253 13.118C24.9483 14.0173 24.2688 15.4528 24.4511 16.8313C25.7981 16.9363 27.1728 16.1465 28.0113 15.1333Z" fill="var(--fill-0, #282D34)"/>
</g>
</svg>
