<svg preserveAspectRatio="none" width="100%" height="100%" overflow="visible" style="display: block;" viewBox="0 0 17.5 21.5" fill="none" xmlns="http://www.w3.org/2000/svg">
<path id="Outlined" d="M15.75 0C16.7165 0 17.5 0.783502 17.5 1.75V19.75C17.5 20.7165 16.7165 21.5 15.75 21.5H1.75C0.783502 21.5 5.15404e-07 20.7165 0 19.75V1.75C0 0.783502 0.783502 6.44255e-08 1.75 0H15.75ZM1.75 1.5C1.61193 1.5 1.5 1.61193 1.5 1.75V19.75C1.5 19.8881 1.61193 20 1.75 20H15.75C15.8881 20 16 19.8881 16 19.75V1.75C16 1.61193 15.8881 1.5 15.75 1.5H10V8.75C10 9.04526 9.82692 9.31353 9.55762 9.43457C9.28826 9.55553 8.97269 9.50665 8.75195 9.31055L7 7.75391L5.24805 9.31055C5.02731 9.5067 4.71177 9.55554 4.44238 9.43457C4.17302 9.31356 4 9.0453 4 8.75V1.5H1.75ZM12.75 15C13.1642 15 13.5 15.3358 13.5 15.75C13.5 16.1642 13.1642 16.5 12.75 16.5H4.75C4.33579 16.5 4 16.1642 4 15.75C4 15.3358 4.33579 15 4.75 15H12.75ZM9.75 12C10.1642 12 10.5 12.3358 10.5 12.75C10.5 13.1642 10.1642 13.5 9.75 13.5H4.75C4.33579 13.5 4 13.1642 4 12.75C4 12.3358 4.33579 12 4.75 12H9.75ZM5.5 7.08008L6.50195 6.18945C6.78609 5.93703 7.21393 5.93699 7.49805 6.18945L8.5 7.08008V1.5H5.5V7.08008Z" fill="var(--fill-0, #282D34)"/>
</svg>
