<svg preserveAspectRatio="none" width="100%" height="100%" overflow="visible" style="display: block;" viewBox="0 0 110 20.3959" fill="none" xmlns="http://www.w3.org/2000/svg">
<g id="VT-markets-logo">
<g id="Group 3">
<mask id="mask0_0_962" style="mask-type:luminance" maskUnits="userSpaceOnUse" x="101" y="8" width="10" height="13">
<path id="Clip 2" fill-rule="evenodd" clip-rule="evenodd" d="M101.092 8.13077H110V20.3957H101.092V8.13077Z" fill="var(--fill-0, white)"/>
</mask>
<g mask="url(#mask0_0_962)">
<path id="Fill 1" fill-rule="evenodd" clip-rule="evenodd" d="M105.508 8.13077C106.764 8.13077 107.907 8.51547 108.959 9.27352C109.163 9.40916 109.174 9.56772 109.005 9.76006L108.631 10.2466C108.529 10.3938 108.382 10.4049 108.19 10.2693C107.341 9.66956 106.414 9.36403 105.429 9.36403C104.671 9.36403 104.072 9.54503 103.619 9.91839C103.155 10.292 102.929 10.7672 102.929 11.3553C102.929 12.1814 103.574 12.7925 104.264 13.064C104.615 13.211 105.067 13.3695 105.644 13.5392C105.791 13.5843 105.916 13.6184 105.995 13.6297C106.04 13.6411 106.221 13.6975 106.538 13.788C106.855 13.8785 107.047 13.935 107.126 13.9579C107.206 13.9917 107.375 14.0482 107.658 14.15C107.941 14.2519 108.122 14.3199 108.201 14.3764C108.281 14.4329 108.439 14.5121 108.665 14.6255C108.891 14.75 109.05 14.8519 109.129 14.9421C109.208 15.044 109.321 15.1683 109.468 15.3155C109.604 15.474 109.706 15.621 109.774 15.7682C109.898 16.0622 110 16.4809 110 16.9448C110 17.963 109.638 18.7891 108.903 19.4342C108.167 20.0788 107.092 20.3957 105.689 20.3957C103.698 20.3957 102.182 19.7057 101.141 18.3252C101.05 18.1556 101.084 18.0086 101.243 17.8952L101.752 17.5445C101.921 17.4427 102.069 17.4653 102.193 17.6126C103.076 18.6305 104.264 19.1398 105.757 19.1398C107.556 19.1398 108.586 18.3366 108.586 17.0353C108.586 16.4129 108.36 15.9603 107.918 15.6662C107.466 15.372 106.776 15.0893 105.848 14.8289C105.724 14.7951 105.633 14.7725 105.576 14.7611C105.531 14.75 105.35 14.6933 105.033 14.5915C104.716 14.501 104.524 14.4442 104.445 14.4218C104.366 14.3991 104.184 14.3424 103.902 14.2406C103.619 14.1389 103.438 14.0595 103.347 14.0031C103.257 13.9464 103.098 13.8672 102.883 13.754C102.431 13.5165 102.408 13.3807 102.092 13.0413C101.944 12.8943 101.843 12.7358 101.786 12.5661C101.684 12.2493 101.559 11.8194 101.559 11.3553C101.559 10.3938 101.921 9.62419 102.646 9.0247C103.359 8.42497 104.32 8.13077 105.508 8.13077" fill="var(--fill-0, #031F45)"/>
</g>
</g>
<path id="Fill 4" fill-rule="evenodd" clip-rule="evenodd" d="M96.7715 5.03035C96.9751 5.03035 97.077 5.13219 97.077 5.33588V8.50396H99.091C99.2618 8.50396 99.3523 8.58428 99.3625 8.74538V9.43167C99.3625 9.63536 99.272 9.73721 99.091 9.73721H97.077V16.1525C97.077 17.8837 97.9142 18.7662 99.5775 18.8227C99.7926 18.8227 99.9055 18.9246 99.9055 19.1396V19.8638C99.9055 20.0673 99.7926 20.1692 99.5775 20.158C98.401 20.124 97.4617 19.796 96.7715 19.1736C96.0812 18.5512 95.7308 17.5895 95.7308 16.2884V9.73721H94.0108C93.8071 9.73721 93.7052 9.63536 93.7166 9.43167V8.80949C93.7166 8.60557 93.8184 8.50396 94.0108 8.50396H95.7308V5.33588C95.7308 5.13219 95.8324 5.03035 96.0361 5.03035H96.7715Z" fill="var(--fill-0, #031F45)"/>
<path id="Fill 6" fill-rule="evenodd" clip-rule="evenodd" d="M46.9028 8.15304C48.0342 8.15304 48.9055 8.50371 49.5163 9.2164C50.1274 9.92931 50.4329 10.8911 50.4329 12.0789V19.6939C50.4329 19.9087 50.3197 20.0222 50.1047 20.0222H49.3696C49.177 20.0222 49.0865 19.9203 49.0865 19.7164V12.3734C49.0865 10.3932 48.249 9.40898 46.5633 9.40898C45.7261 9.40898 45.0247 9.69183 44.4701 10.2575C43.9044 10.8232 43.5537 11.5586 43.4292 12.4639L43.3612 19.7391C43.3612 19.9314 43.2593 20.0222 43.0559 20.0222H42.3432C42.1282 20.0222 42.015 19.9203 42.015 19.7164L42.0828 12.2829C42.0828 10.4612 41.2002 9.40898 39.4918 9.40898C38.6092 9.40898 37.8738 9.73696 37.2968 10.3818C36.7084 11.0269 36.369 11.7961 36.267 12.6789V19.6939C36.267 19.9087 36.1651 20.0222 35.9503 20.0222H35.2261C35.0113 20.0222 34.8981 19.9087 34.9094 19.6939V8.8317C34.9094 8.6169 35.0113 8.50371 35.2261 8.50371H35.9503C36.1651 8.50371 36.2785 8.6169 36.267 8.8317V10.6195C37.0931 8.97891 38.315 8.16438 39.9329 8.15304C41.6076 8.15304 42.739 9.01294 43.2031 10.4272C43.9384 9.03539 45.2622 8.15304 46.9028 8.15304" fill="var(--fill-0, #031F45)"/>
<path id="Fill 8" fill-rule="evenodd" clip-rule="evenodd" d="M69.8821 8.17654C70.233 8.18788 70.5043 8.22167 70.708 8.27838C70.9119 8.31218 70.9797 8.42536 70.923 8.61771L70.6629 9.36465C70.6061 9.50029 70.4932 9.557 70.3235 9.54566C70.1083 9.51163 69.8935 9.50029 69.6898 9.50029C68.4565 9.50029 67.4948 10.0435 66.8045 11.1409C66.1143 12.2385 65.7748 13.5509 65.7748 15.0671V19.695C65.7748 19.9096 65.6729 20.023 65.4808 20.023H64.7568C64.5417 20.023 64.4286 19.9096 64.4286 19.695V8.83274C64.4286 8.61771 64.5417 8.50453 64.7568 8.50453H65.4808C65.6845 8.50453 65.7863 8.61771 65.7748 8.83274V11.6839C66.499 9.35331 67.8681 8.18788 69.8821 8.17654" fill="var(--fill-0, #031F45)"/>
<path id="Fill 10" fill-rule="evenodd" clip-rule="evenodd" d="M73.3091 1.82821C73.5241 1.82821 73.6371 1.9414 73.6371 2.15643V14.8966L79.498 8.69627C79.6455 8.57174 79.7811 8.51527 79.8941 8.50392H81.0708C81.2518 8.50392 81.3423 8.68493 81.2178 8.80946L76.6468 13.5841L82.0893 19.7166C82.2138 19.8411 82.1344 20.0221 81.9534 20.0221H80.7993C80.6637 20.0221 80.5392 19.9543 80.426 19.8184L75.7189 14.5572L73.6371 16.7298V19.6942C73.6371 19.909 73.5241 20.0221 73.3091 20.0221H72.5962C72.3814 20.0221 72.2682 19.909 72.2682 19.6942V2.15643C72.2682 1.9414 72.3814 1.82821 72.5962 1.82821H73.3091Z" fill="var(--fill-0, #031F45)"/>
<path id="Fill 12" fill-rule="evenodd" clip-rule="evenodd" d="M60.6358 14.0485H57.7395C55.9405 14.0485 54.7297 14.3315 54.1527 14.8405C53.5643 15.3498 53.3833 15.8588 53.3833 16.5717C53.3833 18.2123 54.6844 19.1627 56.721 19.1627C57.9089 19.1627 58.8595 18.7213 59.5722 17.8276C60.2851 16.945 60.6358 15.9155 60.6358 14.7387V14.0485ZM57.1435 8.13081C60.2324 8.13081 61.986 9.72608 61.986 12.996V19.7168C61.986 19.9208 61.8841 20.0226 61.6807 20.0226H60.911C60.7601 20.0226 60.6722 19.9509 60.6622 19.7999V17.7707C60.221 18.6533 59.61 19.3097 58.8406 19.7395C58.0598 20.1809 57.2791 20.3957 56.4873 20.3957C55.1746 20.3957 54.111 20.0564 53.2852 19.3889C52.4591 18.7211 52.0406 17.7934 52.0406 16.6166C52.0406 15.3833 52.5044 14.4556 53.4208 13.8334C54.3374 13.211 55.8649 12.9055 57.992 12.9055H60.6395C60.5944 10.5408 59.4403 9.36406 57.1659 9.36406C56.0234 9.36406 54.9936 9.77144 54.077 10.5862C53.93 10.7105 53.7944 10.6994 53.6812 10.5633L53.2738 10.0994C53.1268 9.95245 53.1155 9.81658 53.2511 9.69228C53.6812 9.27356 54.258 8.91155 54.9712 8.59467C55.6838 8.28913 56.4081 8.13081 57.1435 8.13081V8.13081Z" fill="var(--fill-0, #031F45)"/>
<path id="Fill 14" fill-rule="evenodd" clip-rule="evenodd" d="M87.8598 9.38726C86.5925 9.38726 85.5627 9.79441 84.7593 10.6092C83.9561 11.435 83.5149 12.51 83.4582 13.8564H92.0123C91.9215 12.51 91.4915 11.435 90.7223 10.6092C89.9416 9.79441 88.9912 9.38726 87.8598 9.38726M87.8728 8.13071C89.3889 8.13071 90.6789 8.69664 91.7536 9.82805C92.8174 10.9708 93.3604 12.5776 93.3715 14.6706C93.3715 14.9083 93.2586 15.0215 93.0211 15.0215H83.5169C83.6412 16.1982 84.1164 17.1713 84.9538 17.952C85.791 18.7328 86.877 19.1172 88.2008 19.1172C89.3324 19.1172 90.328 18.789 91.1881 18.1215C91.3804 17.9972 91.5161 18.0199 91.6068 18.1668L91.9799 18.7212C92.1045 18.8684 92.0818 19.0154 91.9348 19.1626C90.9166 19.9885 89.6718 20.3959 88.2008 20.3959C86.4021 20.3959 84.9422 19.8075 83.7997 18.6307C82.657 17.4542 82.0797 15.9945 82.0797 14.2518C82.0797 12.5096 82.6229 11.05 83.7092 9.88453C84.7839 8.7191 86.1757 8.13071 87.8728 8.13071" fill="var(--fill-0, #031F45)"/>
<g id="Group 18">
<mask id="mask1_0_962" style="mask-type:luminance" maskUnits="userSpaceOnUse" x="0" y="0" width="27" height="21">
<path id="Clip 17" fill-rule="evenodd" clip-rule="evenodd" d="M0 0H26.7513V20.2166H0V0Z" fill="var(--fill-0, white)"/>
</mask>
<g mask="url(#mask1_0_962)">
<path id="Fill 16" fill-rule="evenodd" clip-rule="evenodd" d="M17.9589 4.79545V0.881591C17.9589 0.396207 18.3119 0.0281756 18.7975 0.0281756L21.5929 -0.00122063C22.1227 -0.00122063 22.5054 0.351997 22.5054 0.881591V4.79545H24.9478C25.4022 4.78665 25.7776 5.14797 25.7864 5.60257C25.7864 5.60327 25.7864 5.60396 25.7864 5.60466V7.5617C25.7855 8.01769 25.4149 8.38665 24.9589 8.38572C24.9552 8.38572 24.9515 8.38549 24.9478 8.38549H22.5054V13.7708C22.5054 14.601 22.7516 15.1624 23.2539 15.5149C23.7303 15.8493 24.4365 15.9961 25.3811 16.0065C25.4177 16.007 25.8165 16.0072 25.854 16.0072C26.2172 16.0072 26.7514 16.5514 26.7514 16.9639V19.3181C26.7514 19.6914 26.1507 20.2155 25.854 20.2155C25.8338 20.2155 25.4522 20.2155 25.4323 20.2155C24.4758 20.2122 23.5764 20.1363 22.7243 19.9599C21.9204 19.7935 21.1587 19.538 20.4307 19.1706C18.9005 18.4057 17.9589 16.89 17.9589 14.889V8.38549H15.8989C15.7829 8.38595 15.6679 8.36118 15.5623 8.31304L9.48818 19.6857C9.32638 20.0241 9.09075 20.2007 8.76716 20.2007C8.44357 20.1859 8.19335 20.0241 8.01675 19.7151L0.145048 5.75187C-0.16419 5.17806 0.0272322 4.79545 0.66006 4.79545H4.10312C4.67692 4.79545 5.10328 5.07506 5.36831 5.63405L8.73753 13.109L11.9894 5.60466C12.1954 5.06048 12.578 4.79545 13.1372 4.79545H17.9589Z" fill="var(--fill-0, #031F45)"/>
</g>
</g>
<path id="Fill 19" fill-rule="evenodd" clip-rule="evenodd" d="M27.9277 18.1128C27.9277 19.275 26.9854 20.2168 25.8234 20.2168C24.6612 20.2168 23.7192 19.2745 23.7194 18.1126C23.7194 16.9504 24.6615 16.0086 25.8234 16.0086C26.9856 16.0086 27.9277 16.9506 27.9277 18.1128Z" fill="var(--fill-0, #00F0FF)"/>
</g>
</svg>
