<svg preserveAspectRatio="none" width="100%" height="100%" overflow="visible" style="display: block;" viewBox="0 0 10.8 10.8" fill="none" xmlns="http://www.w3.org/2000/svg">
<g id="ic-copy" clip-path="url(#clip0_0_1357)">
<path id="Outlined" d="M9.04227 0.787555C9.57806 0.787675 10.012 1.22244 10.012 1.75826V7.24263C10.0118 7.77827 9.57793 8.21224 9.04227 8.21236H8.21219V9.04244C8.21203 9.57806 7.77808 10.012 7.24247 10.0122H1.75809C1.22231 10.0122 0.787555 9.57819 0.78739 9.04244V3.55806C0.78739 3.02217 1.2222 2.58736 1.75809 2.58736H2.58719V1.75826C2.58719 1.22237 3.02201 0.787555 3.5579 0.787555H9.04227ZM1.75809 3.26216C1.595 3.26216 1.46219 3.39497 1.46219 3.55806V9.04244C1.46236 9.20539 1.5951 9.33736 1.75809 9.33736H7.24247C7.40528 9.33715 7.53723 9.20526 7.53739 9.04244V3.55806C7.53739 3.3951 7.40539 3.26238 7.24247 3.26216H1.75809ZM3.5579 1.46236C3.3948 1.46236 3.262 1.59516 3.262 1.75826V2.58736H7.24247C7.77818 2.58757 8.21219 3.0223 8.21219 3.55806V7.53755H9.04227C9.20514 7.53743 9.33698 7.40548 9.33719 7.24263V1.75826C9.33719 1.59524 9.20527 1.46248 9.04227 1.46236H3.5579Z" fill="var(--fill-0, #282D34)"/>
</g>
<defs>
<clipPath id="clip0_0_1357">
<rect width="10.8" height="10.8" fill="white"/>
</clipPath>
</defs>
</svg>
