<svg preserveAspectRatio="none" width="100%" height="100%" overflow="visible" style="display: block;" viewBox="0 0 50 50" fill="none" xmlns="http://www.w3.org/2000/svg">
<g id="Downloads">
<circle id="Ellipse 1928" cx="25" cy="25" r="25" fill="var(--fill-0, white)"/>
<g id="Group 2087330481">
<path id="line-chart-dots-square" d="M18.3242 15.9629H31.5742C32.8149 15.9629 33.702 16.3036 34.2803 16.8818C34.8586 17.4601 35.1992 18.3472 35.1992 19.5879V30.8379C35.1992 32.0785 34.8586 32.9657 34.2803 33.5439C33.702 34.1222 32.8149 34.4629 31.5742 34.4629H18.3242C17.0836 34.4629 16.1964 34.1222 15.6182 33.5439C15.0399 32.9657 14.6992 32.0785 14.6992 30.8379V19.5879C14.6992 18.3472 15.0399 17.4601 15.6182 16.8818C16.1964 16.3036 17.0836 15.9629 18.3242 15.9629ZM18.3242 16.4629C17.347 16.4629 16.5302 16.669 15.9678 17.2314C15.4053 17.7939 15.1992 18.6107 15.1992 19.5879V30.8379C15.1992 31.8151 15.4053 32.6319 15.9678 33.1943C16.5302 33.7568 17.347 33.9629 18.3242 33.9629H31.5742C32.5514 33.9629 33.3682 33.7568 33.9307 33.1943C34.4931 32.6319 34.6992 31.8151 34.6992 30.8379V19.5879C34.6992 18.6107 34.4931 17.7939 33.9307 17.2314C33.3682 16.669 32.5514 16.4629 31.5742 16.4629H18.3242Z" fill="var(--fill-0, #0A36C7)" stroke="var(--stroke-0, #0A36C7)"/>
<path id="Vector 1142" d="M18.8398 28.4629L21.3398 25.4629L25.3398 28.4629L31.3398 21.4629" stroke="var(--stroke-0, #0A36C7)" stroke-width="1.4" stroke-linecap="round" stroke-linejoin="round"/>
</g>
</g>
</svg>
