<svg preserveAspectRatio="none" width="100%" height="100%" overflow="visible" style="display: block;" viewBox="0 0 5.88034 10.4" fill="none" xmlns="http://www.w3.org/2000/svg">
<path id="Vector" d="M5.68033 5.68033L1.15961 10.201C1.03222 10.3284 0.859441 10.4 0.679283 10.4C0.499126 10.4 0.326348 10.3284 0.198957 10.201C0.071567 10.0737 1.34228e-09 9.90087 0 9.72072C-1.34228e-09 9.54056 0.071567 9.36778 0.198957 9.24039L4.23991 5.20057L0.200088 1.15961C0.137011 1.09653 0.0869746 1.02165 0.0528374 0.939234C0.0187003 0.85682 0.00112999 0.768489 0.00112999 0.679284C0.00112999 0.590079 0.0187003 0.501747 0.0528374 0.419333C0.0869746 0.336918 0.137011 0.262035 0.200088 0.198958C0.263165 0.13588 0.338049 0.0858447 0.420463 0.0517075C0.502878 0.0175703 0.591209 -6.64628e-10 0.680414 0C0.769619 6.64628e-10 0.85795 0.0175703 0.940364 0.0517075C1.02278 0.0858447 1.09766 0.13588 1.16074 0.198958L5.68145 4.71967C5.7446 4.78275 5.79467 4.85766 5.8288 4.94013C5.86293 5.02259 5.88044 5.11099 5.88034 5.20023C5.88023 5.28948 5.86251 5.37783 5.82819 5.46022C5.79386 5.5426 5.74362 5.6174 5.68033 5.68033Z" fill="var(--fill-0, #282D34)"/>
</svg>
