<svg preserveAspectRatio="none" width="100%" height="100%" overflow="visible" style="display: block;" viewBox="0 0 18.8334 23.1288" fill="none" xmlns="http://www.w3.org/2000/svg">
<g id="Group 1000005592">
<path id="Vector" d="M15.7296 12.2893C15.7007 9.35994 18.1184 7.95559 18.2261 7.88548C16.8673 5.89712 14.751 5.62536 13.9971 5.59356C12.196 5.41142 10.483 6.65387 9.5687 6.65387C8.65728 6.65387 7.24642 5.6203 5.75244 5.64776C3.78939 5.67668 1.97884 6.78903 0.968396 8.54754C-1.07128 12.0869 0.44583 17.33 2.43418 20.2008C3.40559 21.6059 4.5642 23.1837 6.08492 23.1273C7.54926 23.0688 8.10363 22.1798 9.87371 22.1798C11.6438 22.1798 12.1418 23.1273 13.6921 23.0984C15.2678 23.0688 16.2667 21.6666 17.2316 20.2572C18.3468 18.6273 18.8065 17.0488 18.8332 16.9678C18.7985 16.9519 15.76 15.7883 15.7296 12.2893ZM12.8176 3.69338C13.6249 2.71402 14.1699 1.3552 14.021 0C12.858 0.0477032 11.4486 0.774815 10.6146 1.75128C9.86576 2.61789 9.21092 4.00128 9.38656 5.32974C10.6847 5.43093 12.0095 4.66985 12.8176 3.69338Z" fill="var(--fill-0, white)"/>
</g>
</svg>
