<svg preserveAspectRatio="none" width="100%" height="100%" overflow="visible" style="display: block;" viewBox="0 0 50 50" fill="none" xmlns="http://www.w3.org/2000/svg">
<g id="Downloads">
<rect width="50" height="50" rx="25" fill="var(--fill-0, white)"/>
<circle id="Ellipse 1928" cx="25" cy="25" r="25" fill="var(--fill-0, white)"/>
<path id="Union" d="M31.2158 31.001C31.2158 32.0204 30.3895 32.8474 29.3701 32.8477H28.4463V36.0781C28.4462 36.8427 27.8261 37.4629 27.0615 37.4629C26.2971 37.4626 25.6778 36.8425 25.6777 36.0781V32.8477H23.8311V36.0781C23.831 36.8427 23.2109 37.4629 22.4463 37.4629C21.6819 37.4627 21.0626 36.8426 21.0625 36.0781V32.8477H20.1387C19.1193 32.8474 18.293 32.0204 18.293 31.001V20.8477H31.2158V31.001ZM15.9863 20.8477C16.7509 20.8478 17.3711 21.4678 17.3711 22.2324V27.7705C17.3711 28.5351 16.7509 29.1551 15.9863 29.1553C15.2217 29.1553 14.6016 28.5352 14.6016 27.7705V22.2324C14.6016 21.4678 15.2216 20.8477 15.9863 20.8477ZM33.5254 20.8477C34.29 20.8478 34.9102 21.4678 34.9102 22.2324V27.7705C34.9101 28.5351 34.2899 29.1552 33.5254 29.1553C32.7607 29.1553 32.1407 28.5351 32.1406 27.7705V22.2324C32.1406 21.4678 32.7607 20.8477 33.5254 20.8477ZM28.582 13.5986C28.7623 13.4184 29.0541 13.4184 29.2344 13.5986C29.4145 13.7789 29.4145 14.0708 29.2344 14.251L28.6875 14.7979C30.2248 15.979 31.2158 17.8363 31.2158 19.9248H18.293C18.293 17.8363 19.284 15.979 20.8213 14.7979L20.2744 14.251C20.0943 14.0708 20.0943 13.7789 20.2744 13.5986C20.4547 13.4184 20.7465 13.4184 20.9268 13.5986L21.6084 14.2793C22.5393 13.7594 23.612 13.463 24.7539 13.4629C25.896 13.4629 26.9694 13.7594 27.9004 14.2793L28.582 13.5986ZM21.9854 16.2324C21.4756 16.2324 21.0625 16.6455 21.0625 17.1553C21.0625 17.6651 21.4755 18.0781 21.9854 18.0781C22.4951 18.078 22.9082 17.665 22.9082 17.1553C22.9082 16.6456 22.4951 16.2325 21.9854 16.2324ZM27.5234 16.2324C27.0137 16.2325 26.6006 16.6456 26.6006 17.1553C26.6006 17.665 27.0137 18.0781 27.5234 18.0781C28.0332 18.0781 28.4463 17.6651 28.4463 17.1553C28.4462 16.6455 28.0332 16.2324 27.5234 16.2324Z" fill="var(--fill-0, #87C527)"/>
</g>
</svg>
