<svg preserveAspectRatio="none" width="100%" height="100%" overflow="visible" style="display: block;" viewBox="0 0 20.1493 20.9998" fill="none" xmlns="http://www.w3.org/2000/svg">
<g id="Group 2087327706">
<path id="Subtract" d="M8.9209 0.632812C9.50991 -0.216985 10.7695 -0.208691 11.3496 0.645508L12.4102 2.21094C12.572 2.4492 12.8781 2.55232 13.1523 2.45801L14.9375 1.83789C15.9132 1.50065 16.925 2.24216 16.8936 3.27637L16.835 5.16504C16.8261 5.45714 17.0105 5.71333 17.2891 5.79883L19.1016 6.34766C20.0907 6.649 20.4728 7.84476 19.8389 8.66309L18.6787 10.1562C18.499 10.3855 18.4986 10.7047 18.6738 10.9385L19.8164 12.4443C20.4414 13.2672 20.0455 14.4642 19.0518 14.752L17.2354 15.2773C16.9566 15.3583 16.768 15.615 16.7725 15.9072L16.8086 17.7998C16.8311 18.834 15.8052 19.5675 14.834 19.2168L13.0537 18.5781C12.7794 18.4792 12.4734 18.5781 12.3115 18.8164L11.2275 20.3672C10.6385 21.217 9.37992 21.2086 8.7998 20.3545L7.73828 18.7891C7.57639 18.5511 7.27113 18.4478 6.99707 18.542L5.21191 19.1621C4.23617 19.4993 3.22438 18.7578 3.25586 17.7236L3.31445 15.835C3.32336 15.5429 3.13887 15.2867 2.86035 15.2012L1.04785 14.6523C0.0586637 14.351 -0.32345 13.1553 0.310547 12.3369L1.4707 10.8438C1.65039 10.6144 1.64992 10.2953 1.47461 10.0615L0.333008 8.55566C-0.292011 7.7328 0.103922 6.53583 1.09766 6.24805L2.91406 5.72266C3.19281 5.6417 3.38145 5.38502 3.37695 5.09277L3.34082 3.2002C3.31834 2.16599 4.34418 1.43247 5.31543 1.7832L7.0957 2.42188C7.36999 2.5208 7.67602 2.42191 7.83789 2.18359L8.9209 0.632812ZM11.0742 2.84082C10.6185 2.17502 9.62871 2.16871 9.16602 2.83105L8.31543 4.04004C8.18829 4.22576 7.94786 4.30264 7.73242 4.22559L6.33398 3.72754C5.57104 3.45418 4.76554 4.02597 4.7832 4.83203L4.81152 6.30762C4.81491 6.53529 4.66616 6.7348 4.44727 6.79785L3.02051 7.20801C2.23991 7.4323 1.92898 8.36452 2.41992 9.00586L3.31738 10.1797C3.45514 10.3619 3.45476 10.6113 3.31348 10.79L2.40234 11.9531C1.90436 12.5909 2.20453 13.5229 2.98145 13.7578L4.40527 14.1855C4.62414 14.2522 4.76874 14.452 4.76172 14.6797L4.71582 16.1514C4.6911 16.9573 5.48561 17.5359 6.25195 17.2734L7.6543 16.79C7.86976 16.7164 8.11015 16.7967 8.2373 16.9824L9.07129 18.2021C9.52697 18.8677 10.5158 18.8749 10.9785 18.2129L11.8301 17.0029C11.9573 16.8176 12.1969 16.7406 12.4121 16.8174L13.8115 17.3154C14.5744 17.5885 15.379 17.0169 15.3613 16.2109L15.334 14.7363C15.3305 14.5085 15.4783 14.3082 15.6973 14.2451L17.124 13.835C17.9046 13.6107 18.2156 12.6785 17.7246 12.0371L16.8271 10.8633C16.6896 10.6812 16.6901 10.4325 16.8311 10.2539L17.7422 9.08984C18.2402 8.45201 17.9402 7.51996 17.1631 7.28516L15.7393 6.85742C15.5205 6.7907 15.3758 6.59093 15.3828 6.36328L15.4287 4.8916C15.4534 4.08565 14.659 3.50694 13.8926 3.76953L12.4902 4.25391C12.2748 4.3275 12.0344 4.24629 11.9072 4.06055L11.0742 2.84082Z" fill="var(--fill-0, #282D34)"/>
<path id="Vector" d="M8.39967 14.1676C8.18384 14.1676 7.9725 14.0866 7.80613 13.9203L5.5039 11.618C5.17566 11.2898 5.17566 10.7592 5.5039 10.4355C5.83215 10.1072 6.36274 10.1072 6.68649 10.4355L8.39518 12.1441L13.4538 7.08554C13.782 6.75729 14.3126 6.75729 14.6364 7.08554C14.9646 7.41379 14.9646 7.94438 14.6364 8.26813L8.99321 13.9248C8.82684 14.0866 8.61551 14.1676 8.39967 14.1676Z" fill="var(--fill-0, #282D34)"/>
</g>
</svg>
