<svg preserveAspectRatio="none" width="100%" height="100%" overflow="visible" style="display: block;" viewBox="0 0 19.1552 21.9011" fill="none" xmlns="http://www.w3.org/2000/svg">
<g id="Group 1000005590">
<path id="Vector" d="M8.94849 10.4659L0.0821133 20.0875C0.180629 20.4529 0.359872 20.7895 0.604792 21.0727C0.849712 21.3546 1.1521 21.5762 1.49417 21.7185C1.83279 21.8611 2.20035 21.9216 2.56681 21.8949C2.93327 21.8683 3.28822 21.7553 3.60267 21.5653L13.5801 15.6804L8.94849 10.4659Z" fill="var(--fill-0, #EA4335)"/>
<path id="Vector_2" d="M17.9091 8.82209L13.5949 6.26343L8.96883 10.9101L13.5703 15.6771L17.8954 13.1253C18.2744 12.9201 18.5932 12.6108 18.8149 12.2318C19.0378 11.85 19.1552 11.4158 19.1552 10.9737C19.1552 10.5316 19.0378 10.0974 18.8149 9.71557C18.5959 9.33927 18.2778 9.03024 17.8954 8.82209H17.9091Z" fill="var(--fill-0, #FBBC04)"/>
<path id="Vector_3" d="M0.0794108 1.81258C0.0246801 2.01782 -0.00131697 2.2299 5.12883e-05 2.44198V19.4413C5.12883e-05 19.6534 0.0274166 19.8655 0.0794108 20.0708L9.24954 10.6954L0.0794108 1.81395V1.81258Z" fill="var(--fill-0, #4285F4)"/>
<path id="Vector_4" d="M9.01417 10.9494L13.5992 6.26175L3.63551 0.350837C3.22549 0.0975422 2.74753 -0.0236049 2.26636 0.00380632C1.7852 0.0312175 1.32409 0.205862 0.945491 0.504083C0.528169 0.829731 0.224413 1.28947 0.0821133 1.81215L9.01417 10.9481V10.9494Z" fill="var(--fill-0, #34A853)"/>
</g>
</svg>
