<svg preserveAspectRatio="none" width="100%" height="100%" overflow="visible" style="display: block;" viewBox="0 0 24 23.04" fill="none" xmlns="http://www.w3.org/2000/svg">
<g id="Frame">
<path id="Vector" d="M15.8849 15.4095H18.526V12.8741H21.1671V16.6773H18.526V17.945H15.8849V16.6773H13.2438V12.8741H15.8849V15.4095ZM4 12.8741H11.9233V20.4804H4V12.8741ZM6.64109 15.4095V17.945H9.28219V15.4095H6.64109ZM4 4H11.9233V11.6064H4V4ZM6.64109 6.53545V9.0709H9.28219V6.53545H6.64109ZM13.2438 4H21.1671V11.6064H13.2438V4ZM15.8849 6.53545V9.0709H18.526V6.53545H15.8849ZM18.526 17.945H21.1671V20.4804H18.526V17.945ZM13.2438 17.945H15.8849V20.4804H13.2438V17.945Z" fill="var(--fill-0, white)"/>
</g>
</svg>
