<svg preserveAspectRatio="none" width="100%" height="100%" overflow="visible" style="display: block;" viewBox="0 0 13.1117 12.518" fill="none" xmlns="http://www.w3.org/2000/svg">
<path id="Vector" opacity="0.8" d="M13.0876 4.74549C13.0296 4.56711 12.8754 4.4371 12.6897 4.41012L8.75665 3.83859L6.99774 0.274637C6.91475 0.106479 6.74342 0 6.55588 0C6.36834 0 6.19702 0.106479 6.11399 0.274637L4.35503 3.83859L0.421954 4.41012C0.236301 4.4371 0.0821449 4.56711 0.0241208 4.74549C-0.0338213 4.92391 0.0145116 5.1197 0.148834 5.25066L2.99485 8.02478L2.32299 11.9419C2.29129 12.1268 2.36726 12.3136 2.51899 12.4239C2.67077 12.5341 2.87194 12.5486 3.03797 12.4614L6.55588 10.6119L10.0737 12.4614C10.1458 12.4993 10.2245 12.518 10.303 12.518C10.4051 12.518 10.5068 12.4863 10.5927 12.4239C10.7444 12.3136 10.8204 12.1268 10.7887 11.9419L10.1169 8.02478L12.9629 5.25066C13.0972 5.11975 13.1455 4.92391 13.0876 4.74549Z" fill="var(--fill-0, white)"/>
</svg>
