<svg width="20" height="20" viewBox="0 0 20 20" fill="none" xmlns="http://www.w3.org/2000/svg">
<g clip-path="url(#clip0_5103_385796)">
<circle cx="9" cy="5" r="3.2" stroke="#282D34" stroke-width="1.6"/>
<path d="M11 11H7.38516C5.34064 11 3.5021 12.2448 2.74278 14.143L2.5 14.75C1.78153 16.5462 3.10435 18.5 5.03887 18.5H12" stroke="#282D34" stroke-width="1.6" stroke-linecap="round"/>
<path d="M17.75 15C18.164 15 18.5 14.664 18.5 14.25C18.5 13.836 18.164 13.5 17.75 13.5H16V11.75C16 11.336 15.664 11 15.25 11C14.836 11 14.5 11.336 14.5 11.75V13.5H12.75C12.336 13.5 12 13.836 12 14.25C12 14.664 12.336 15 12.75 15H14.5V16.75C14.5 17.164 14.836 17.5 15.25 17.5C15.664 17.5 16 17.164 16 16.75V15H17.75Z" fill="#282D34"/>
</g>
<defs>
<clipPath id="clip0_5103_385796">
<rect width="20" height="20" fill="white"/>
</clipPath>
</defs>
</svg>
