<svg preserveAspectRatio="none" width="100%" height="100%" overflow="visible" style="display: block;" viewBox="0 0 20 20" fill="none" xmlns="http://www.w3.org/2000/svg">
<g id="Section03_VT_Icons-87" clip-path="url(#clip0_0_131)">
<g id="dark bg">
<g id="Vector">
</g>
</g>
<path id="Ellipse 11432" d="M9.49967 2.58289C11.0183 2.58289 12.2495 3.81425 12.2497 5.33289C12.2497 6.85167 11.0185 8.08289 9.49967 8.08289C7.98105 8.08269 6.74967 6.85155 6.74967 5.33289C6.74984 3.81438 7.98116 2.58309 9.49967 2.58289Z" stroke="var(--stroke-0, #282D34)" stroke-width="1.16667"/>
<path id="Subtract" d="M9.42205 10L9.42202 9.4H9.42205V10ZM3.04314 15.8096L2.46508 15.6488L2.46508 15.6488L3.04314 15.8096ZM10.9924 17.2812L11.5618 17.0923C11.6225 17.2752 11.5917 17.4762 11.4789 17.6324C11.3661 17.7887 11.1851 17.8812 10.9924 17.8812V17.2812ZM12.0929 10.6084L12.3642 10.0732C12.5284 10.1564 12.6453 10.3104 12.6813 10.4909C12.7174 10.6715 12.6686 10.8585 12.5489 10.9984L12.0929 10.6084ZM9.42205 10L9.42207 10.6C7.54655 10.6001 6.25876 11.4189 5.35233 12.4939C4.43054 13.587 3.90604 14.9463 3.6212 15.9704L3.04314 15.8096L2.46508 15.6488C2.77197 14.5455 3.35579 13 4.43496 11.7203C5.52948 10.4223 7.13528 9.40009 9.42202 9.4L9.42205 10ZM3.04314 15.8096L3.62121 15.9703C3.52787 16.306 3.7742 16.6813 4.24041 16.6813V17.2812V17.8812C3.10029 17.8812 2.12805 16.8608 2.46508 15.6488L3.04314 15.8096ZM4.24041 17.2812V16.6813H10.9924V17.2812V17.8812H4.24041V17.2812ZM10.9924 17.2812L10.4229 17.4702C9.88021 15.8346 9.38881 12.8466 11.637 10.2184L12.0929 10.6084L12.5489 10.9984C10.7041 13.1551 11.0732 15.6197 11.5618 17.0923L10.9924 17.2812ZM12.0929 10.6084L11.8217 11.1436C11.1608 10.8086 10.3712 10.6 9.42205 10.6V10V9.4C10.5548 9.4 11.5309 9.65089 12.3642 10.0732L12.0929 10.6084Z" fill="var(--stroke-0, #282D34)"/>
<path id="dollar-receive-square" d="M14.7347 12.7028H15.2646C15.6975 12.7028 16.0601 12.9832 16.1093 13.355C16.1441 13.6237 16.4234 13.8193 16.7368 13.7867C17.0486 13.7567 17.2727 13.5148 17.2379 13.2461C17.1357 12.4622 16.4317 11.8576 15.5507 11.7474V11.4891C15.5507 11.2191 15.2963 11 14.983 11C14.6696 11 14.4153 11.2191 14.4153 11.4891V11.7526C13.4729 11.8857 12.75 12.5861 12.75 13.4346C12.75 13.8174 12.8991 14.1918 13.1678 14.4839C13.4373 14.7833 13.8218 14.9998 14.2533 15.0937L15.4704 15.3539C15.8497 15.4368 16.1146 15.7289 16.1146 16.0641C16.1146 16.2585 16.026 16.4417 15.8648 16.5807C15.7036 16.7196 15.4909 16.7958 15.2653 16.7958H14.7354C14.3025 16.7958 13.9399 16.5154 13.8907 16.1437C13.8559 15.875 13.5735 15.678 13.2632 15.7119C12.9513 15.7419 12.7273 15.9839 12.7621 16.2526C12.8628 17.0267 13.5501 17.6274 14.4153 17.7481V18.0109C14.4153 18.2809 14.6696 18.5 14.983 18.5C15.2963 18.5 15.5507 18.2809 15.5507 18.0109V17.7513C15.9708 17.6985 16.3606 17.538 16.6672 17.2739C17.0426 16.9504 17.25 16.5213 17.25 16.0654C17.25 15.2815 16.6331 14.5994 15.7467 14.4063L14.5296 14.1461C14.3418 14.1056 14.1821 14.015 14.0618 13.8826C13.9482 13.7587 13.8854 13.5996 13.8854 13.4359C13.8854 13.0315 14.2661 12.7028 14.7347 12.7028Z" fill="var(--fill-0, #282D34)"/>
</g>
<defs>
<clipPath id="clip0_0_131">
<rect width="20" height="20" fill="white"/>
</clipPath>
</defs>
</svg>
