<svg preserveAspectRatio="none" width="100%" height="100%" overflow="visible" style="display: block;" viewBox="0 0 13 7.34962" fill="none" xmlns="http://www.w3.org/2000/svg">
<path id="Vector" d="M12.7499 1.45006L7.09964 7.10034C7.0209 7.17936 6.92733 7.24205 6.82431 7.28482C6.72129 7.3276 6.61084 7.34962 6.49929 7.34962C6.38774 7.34962 6.27729 7.3276 6.17427 7.28482C6.07125 7.24205 5.97769 7.17936 5.89895 7.10034L0.24867 1.45006C0.0894494 1.29084 -2.37257e-09 1.07489 0 0.849719C2.37257e-09 0.624546 0.0894494 0.408597 0.24867 0.249376C0.407891 0.0901555 0.62384 0.000706438 0.849012 0.000706436C1.07418 0.000706434 1.29013 0.0901555 1.44935 0.249376L6.5 5.30002L11.5506 0.24867C11.7099 0.0894496 11.9258 0 12.151 0C12.3762 0 12.5921 0.0894496 12.7513 0.24867C12.9105 0.407891 13 0.623841 13 0.849013C13 1.07418 12.9105 1.29013 12.7513 1.44935L12.7499 1.45006Z" fill="var(--fill-0, #282D34)"/>
</svg>
