<svg preserveAspectRatio="none" width="100%" height="100%" overflow="visible" style="display: block;" viewBox="0 0 20 20" fill="none" xmlns="http://www.w3.org/2000/svg">
<g id="Account_light">
<path id="Ellipse 11435" d="M8 2.72461C9.09914 2.72461 10.1847 3.43962 11.0264 4.78613C11.8627 6.1243 12.4004 8.01032 12.4004 10.125C12.4004 12.2397 11.8627 14.1257 11.0264 15.4639C10.1847 16.8104 9.09914 17.5254 8 17.5254C6.90086 17.5254 5.81526 16.8104 4.97363 15.4639C4.13728 14.1257 3.59961 12.2397 3.59961 10.125C3.59961 8.01032 4.13728 6.1243 4.97363 4.78613C5.81526 3.43962 6.90086 2.72461 8 2.72461Z" stroke="var(--stroke-0, #282D34)" stroke-width="1.2"/>
<path id="Ellipse 11436" d="M8 2.62509C9.31804 2.62492 10.4992 2.62505 11.4999 2.62505C14.2614 2.62505 16.4999 5.84094 16.4999 10.2592C16.4999 14.6775 14.3954 17.625 11.634 17.625C10.6408 17.625 9.36568 17.625 8 17.625" stroke="var(--stroke-0, #282D34)" stroke-width="1.2"/>
<path id="Vector 3724" d="M11.5 5.125H15" stroke="var(--stroke-0, #282D34)" stroke-width="1.2"/>
<path id="Vector 3725" d="M13 10.125H16.5" stroke="var(--stroke-0, #282D34)" stroke-width="1.2"/>
<path id="Vector 3726" d="M11.5 15.125L15.5 15.125" stroke="var(--stroke-0, #282D34)" stroke-width="1.2"/>
</g>
</svg>
