<svg preserveAspectRatio="none" width="100%" height="100%" overflow="visible" style="display: block;" viewBox="0 0 20 20" fill="none" xmlns="http://www.w3.org/2000/svg">
<g id="Section03_VT_Icons-87" clip-path="url(#clip0_0_168)">
<g id="dark bg">
<g id="Vector">
</g>
</g>
<path id="Ellipse 11432" d="M9.49967 2.58289C11.0183 2.58289 12.2495 3.81425 12.2497 5.33289C12.2497 6.85167 11.0185 8.08289 9.49967 8.08289C7.98105 8.08269 6.74967 6.85155 6.74967 5.33289C6.74984 3.81438 7.98116 2.58309 9.49967 2.58289Z" stroke="var(--stroke-0, #282D34)" stroke-width="1.16667"/>
<path id="Subtract" d="M9.42205 10L9.42202 9.4H9.42205V10ZM3.04314 15.8096L2.46508 15.6488L2.46508 15.6488L3.04314 15.8096ZM10.9924 17.2812L11.5618 17.0923C11.6225 17.2752 11.5917 17.4762 11.4789 17.6324C11.3661 17.7887 11.1851 17.8812 10.9924 17.8812V17.2812ZM12.0929 10.6084L12.3642 10.0732C12.5284 10.1564 12.6453 10.3104 12.6813 10.4909C12.7174 10.6715 12.6686 10.8585 12.5489 10.9984L12.0929 10.6084ZM9.42205 10L9.42207 10.6C7.54655 10.6001 6.25876 11.4189 5.35233 12.4939C4.43054 13.587 3.90604 14.9463 3.6212 15.9704L3.04314 15.8096L2.46508 15.6488C2.77197 14.5455 3.35579 13 4.43496 11.7203C5.52948 10.4223 7.13528 9.40009 9.42202 9.4L9.42205 10ZM3.04314 15.8096L3.62121 15.9703C3.52787 16.306 3.7742 16.6813 4.24041 16.6813V17.2812V17.8812C3.10029 17.8812 2.12805 16.8608 2.46508 15.6488L3.04314 15.8096ZM4.24041 17.2812V16.6813H10.9924V17.2812V17.8812H4.24041V17.2812ZM10.9924 17.2812L10.4229 17.4702C9.88021 15.8346 9.38881 12.8466 11.637 10.2184L12.0929 10.6084L12.5489 10.9984C10.7041 13.1551 11.0732 15.6197 11.5618 17.0923L10.9924 17.2812ZM12.0929 10.6084L11.8217 11.1436C11.1608 10.8086 10.3712 10.6 9.42205 10.6V10V9.4C10.5548 9.4 11.5309 9.65089 12.3642 10.0732L12.0929 10.6084Z" fill="var(--stroke-0, #282D34)"/>
<path id="Vector 3722" d="M14 13V15.5" stroke="var(--stroke-0, #282D34)" stroke-width="1.16667" stroke-linecap="round"/>
<path id="Vector 3723" d="M16 16.5L16 11M18 12.5V15.5" stroke="var(--stroke-0, #282D34)" stroke-width="1.16667" stroke-linecap="round"/>
</g>
<defs>
<clipPath id="clip0_0_168">
<rect width="20" height="20" fill="white"/>
</clipPath>
</defs>
</svg>
