<svg preserveAspectRatio="none" width="100%" height="100%" overflow="visible" style="display: block;" viewBox="0 0 16 13" fill="none" xmlns="http://www.w3.org/2000/svg">
<path id="Subtract" d="M14 0C15.1046 0 16 0.895431 16 2V11C16 12.1046 15.1046 13 14 13H2C0.895431 13 4.02666e-08 12.1046 0 11V2C0 0.895431 0.895431 0 2 0H14ZM2 1C1.44772 1 1 1.44772 1 2V11C1 11.5523 1.44772 12 2 12H5V1H2ZM6 12H14C14.5523 12 15 11.5523 15 11V2C15 1.44772 14.5523 1 14 1H6V12Z" fill="var(--fill-0, #7A8699)"/>
</svg>
