<svg preserveAspectRatio="none" width="100%" height="100%" overflow="visible" style="display: block;" viewBox="0 0 20 20" fill="none" xmlns="http://www.w3.org/2000/svg">
<g id="Account_light">
<path id="Rectangle 376714879" d="M4.5 2.59961H15.5C16.2732 2.59961 16.9004 3.2268 16.9004 4V16C16.9004 16.7732 16.2732 17.4004 15.5 17.4004H4.5C3.7268 17.4004 3.09961 16.7732 3.09961 16V4C3.09961 3.2268 3.7268 2.59961 4.5 2.59961Z" stroke="var(--stroke-0, #282D34)" stroke-width="1.2"/>
<path id="Vector 61" d="M8 6H12" stroke="var(--stroke-0, #282D34)" stroke-width="1.2" stroke-linecap="round"/>
<path id="dollar-receive-square" d="M9.86417 9.68027H10.3352C10.72 9.68027 11.0423 9.92954 11.086 10.26C11.117 10.4988 11.3653 10.6727 11.6438 10.6437C11.921 10.6171 12.1202 10.402 12.0892 10.1632C11.9984 9.46636 11.3727 8.92898 10.5895 8.83101V8.60145C10.5895 8.36145 10.3634 8.16667 10.0849 8.16667C9.8063 8.16667 9.58023 8.36145 9.58023 8.60145V8.83568C8.74255 8.95394 8.1 9.57654 8.1 10.3307C8.1 10.671 8.23255 11.0038 8.47141 11.2635C8.71093 11.5296 9.05274 11.722 9.43625 11.8055L10.5182 12.0368C10.8552 12.1105 11.0908 12.3702 11.0908 12.6681C11.0908 12.8409 11.012 13.0038 10.8687 13.1273C10.7254 13.2507 10.5363 13.3185 10.3358 13.3185H9.86484C9.47998 13.3185 9.1577 13.0693 9.11396 12.7388C9.08301 12.5 8.83204 12.3249 8.55618 12.3551C8.27897 12.3817 8.07982 12.5968 8.11077 12.8356C8.20026 13.5237 8.81118 14.0577 9.58023 14.165V14.3986C9.58023 14.6386 9.8063 14.8333 10.0849 14.8333C10.3634 14.8333 10.5895 14.6386 10.5895 14.3986V14.1679C10.9629 14.1209 11.3094 13.9783 11.5819 13.7435C11.9156 13.4559 12.1 13.0745 12.1 12.6693C12.1 11.9724 11.5516 11.3661 10.7637 11.1945L9.68183 10.9632C9.51497 10.9272 9.373 10.8467 9.26602 10.729C9.1651 10.6189 9.10925 10.4774 9.10925 10.3319C9.10925 9.97246 9.44768 9.68027 9.86417 9.68027Z" fill="var(--fill-0, #282D34)"/>
</g>
</svg>
