<svg preserveAspectRatio="none" width="100%" height="100%" overflow="visible" style="display: block;" viewBox="0 0 20 20" fill="none" xmlns="http://www.w3.org/2000/svg">
<g id="Account_light">
<path id="layer-group" d="M17.7826 14.4019C17.5955 14.735 17.3157 14.9927 16.9727 15.1469L11.5726 17.6546C11.0729 17.8868 10.5371 18.0033 10.0004 18.0033C9.46377 18.0033 8.92713 17.8868 8.42742 17.6546L3.02076 15.1437C2.68515 14.9927 2.40455 14.7358 2.21746 14.4019C2.05089 14.1057 2.15673 13.7306 2.45377 13.5641C2.74917 13.3991 3.12499 13.5034 3.29156 13.8004C3.34982 13.9046 3.42859 13.9777 3.53198 14.0236L8.94682 16.5378C9.60737 16.8447 10.3943 16.8447 11.054 16.5378L16.4615 14.0269C16.5722 13.9768 16.651 13.9038 16.7093 13.7996C16.875 13.5025 17.25 13.3975 17.5471 13.5633C17.8433 13.7307 17.9491 14.1057 17.7826 14.4019ZM17.5471 10.0168C17.25 9.85106 16.875 9.95529 16.7093 10.2532C16.651 10.3574 16.5722 10.4304 16.4615 10.4804L11.054 12.9913C10.3943 13.2982 9.60737 13.2982 8.94682 12.9913L3.53198 10.4771C3.42941 10.4312 3.35064 10.3582 3.29238 10.254C3.12581 9.95691 2.74998 9.85271 2.45458 10.0176C2.15836 10.1842 2.05251 10.5592 2.21826 10.8554C2.40535 11.1894 2.68516 11.4462 3.02159 11.5972L8.42824 14.1081C8.92796 14.3403 9.4646 14.4568 10.0012 14.4568C10.5379 14.4568 11.0737 14.3403 11.5734 14.1081L16.9735 11.6005C17.3165 11.4462 17.5971 11.1894 17.7842 10.8554C17.9491 10.5576 17.8433 10.1826 17.5471 10.0168ZM2 6.4556C2 5.75895 2.39221 5.1452 3.02404 4.85226L8.42824 2.34709C9.42686 1.8843 10.5723 1.8843 11.5718 2.34709L16.976 4.85226C17.6078 5.1452 18 5.75977 18 6.4556C18 7.15144 17.6078 7.76604 16.976 8.05898L11.5718 10.5641C11.0729 10.7955 10.5362 10.9112 9.99959 10.9112C9.46294 10.9112 8.92713 10.7955 8.42742 10.5641L3.02324 8.05898C2.39223 7.76604 2 7.15226 2 6.4556ZM3.23083 6.4556C3.23083 6.53602 3.25299 6.80844 3.54182 6.94301L8.946 9.44817C9.61639 9.75916 10.3853 9.75834 11.054 9.44817L16.4582 6.94301C16.747 6.80926 16.7692 6.53602 16.7692 6.4556C16.7692 6.37519 16.747 6.10277 16.4582 5.9682L11.054 3.46304C10.7192 3.30795 10.359 3.23 9.99959 3.23C9.64018 3.23 9.28078 3.30795 8.94517 3.46304L3.541 5.9682C3.25298 6.10277 3.23083 6.37519 3.23083 6.4556Z" fill="var(--fill-0, #282D34)"/>
</g>
</svg>
