<svg preserveAspectRatio="none" width="100%" height="100%" overflow="visible" style="display: block;" viewBox="0 0 20 20" fill="none" xmlns="http://www.w3.org/2000/svg">
<g id="Account_light">
<path id="Rectangle 376714879 (Stroke)" d="M15.5 16.7998V18H4.5V16.7998H15.5ZM16.2998 16V4C16.2998 3.55817 15.9418 3.2002 15.5 3.2002H4.5C4.05817 3.2002 3.7002 3.55817 3.7002 4V16C3.7002 16.4418 4.05817 16.7998 4.5 16.7998V18L4.2959 17.9893C3.28722 17.887 2.5 17.0357 2.5 16V4C2.5 2.89543 3.39543 2 4.5 2H15.5C16.6046 2 17.5 2.89543 17.5 4V16C17.5 17.1046 16.6046 18 15.5 18V16.7998C15.9418 16.7998 16.2998 16.4418 16.2998 16Z" fill="var(--fill-0, #282D34)"/>
<path id="Vector 60 (Stroke)" d="M13 6.2998C13.3866 6.2998 13.7002 6.6134 13.7002 7C13.7002 7.3866 13.3866 7.7002 13 7.7002H7C6.6134 7.7002 6.2998 7.3866 6.2998 7C6.2998 6.6134 6.6134 6.2998 7 6.2998H13Z" fill="var(--fill-0, #282D34)"/>
<path id="Vector 61 (Stroke)" d="M10.333 9.63318C10.7196 9.63318 11.0332 9.94677 11.0332 10.3334C11.0332 10.72 10.7196 11.0336 10.333 11.0336H7C6.6134 11.0336 6.2998 10.72 6.2998 10.3334C6.2998 9.94677 6.6134 9.63318 7 9.63318H10.333Z" fill="var(--fill-0, #282D34)"/>
<path id="Vector 62 (Stroke)" d="M9 12.7998C9.3866 12.7998 9.7002 13.1134 9.7002 13.5C9.7002 13.8866 9.3866 14.2002 9 14.2002H7C6.6134 14.2002 6.2998 13.8866 6.2998 13.5C6.2998 13.1134 6.6134 12.7998 7 12.7998H9Z" fill="var(--fill-0, #282D34)"/>
</g>
</svg>
