<svg preserveAspectRatio="none" width="100%" height="100%" overflow="visible" style="display: block;" viewBox="0 0 6.34743 7.90396" fill="none" xmlns="http://www.w3.org/2000/svg">
<path id="download" d="M0.185942 5.17937C-0.0619808 4.93145 -0.0619808 4.52949 0.185942 4.28157C0.433865 4.03365 0.835818 4.03365 1.08374 4.28157L2.5391 5.73698V0.634615C2.5391 0.284316 2.82341 0 3.17372 0C3.52402 0 3.80833 0.284316 3.80833 0.634615V5.73698L5.26369 4.28157C5.51161 4.03365 5.91357 4.03365 6.16149 4.28157C6.40941 4.52949 6.40941 4.93145 6.16149 5.17937L3.62303 7.71783C3.56464 7.77621 3.4945 7.82274 3.41666 7.85489C3.33881 7.88705 3.25664 7.90396 3.17372 7.90396C3.09079 7.90396 3.00883 7.88705 2.93098 7.85489C2.85314 7.82274 2.78279 7.77621 2.7244 7.71783L0.185942 5.17937Z" fill="var(--fill-0, #282D34)"/>
</svg>
