<svg preserveAspectRatio="none" width="100%" height="100%" overflow="visible" style="display: block;" viewBox="0 0 6.50195 6.50195" fill="none" xmlns="http://www.w3.org/2000/svg">
<path id="Ellipse 46 (Stroke)" d="M5.30176 3.25098C5.30176 2.11838 4.38356 1.20027 3.25098 1.2002C2.11833 1.2002 1.2002 2.11833 1.2002 3.25098C1.20027 4.38356 2.11838 5.30176 3.25098 5.30176V6.50195L3.08398 6.49707C1.4215 6.41301 0.088089 5.08042 0.00390625 3.41797L0 3.25098C0 1.45559 1.45559 0 3.25098 0L3.41797 0.00390625C5.13569 0.0908878 6.50195 1.51164 6.50195 3.25098L6.49707 3.41797C6.41007 5.13563 4.99024 6.50188 3.25098 6.50195V5.30176C4.38351 5.30168 5.30168 4.38351 5.30176 3.25098Z" fill="var(--fill-0, #282D34)"/>
</svg>
