<svg preserveAspectRatio="none" width="100%" height="100%" overflow="visible" style="display: block;" viewBox="0 0 5.41783 5.41782" fill="none" xmlns="http://www.w3.org/2000/svg">
<path id="Ellipse 49 (Stroke)" d="M2.00739 0.0923472C2.70138 -0.093609 3.44083 0.00361529 4.06305 0.362855C4.68522 0.7221 5.1398 1.31342 5.32575 2.00739C5.51169 2.70137 5.41349 3.44084 5.05426 4.06305C4.69501 4.6852 4.10368 5.1398 3.40973 5.32575C2.71577 5.51166 1.97625 5.41348 1.35407 5.05426C0.731978 4.69503 0.278299 4.10361 0.0923473 3.40973C-0.093609 2.71573 0.00361529 1.97629 0.362855 1.35407C0.722073 0.731983 1.31353 0.278318 2.00739 0.0923472ZM3.46344 1.40192C3.11684 1.20181 2.70451 1.14697 2.31793 1.25055C1.93149 1.3541 1.60205 1.60727 1.40192 1.95368C1.20182 2.30025 1.147 2.71263 1.25055 3.09918C1.35409 3.48561 1.60729 3.81506 1.95368 4.0152C2.30025 4.2153 2.71262 4.27012 3.09918 4.16657C3.48563 4.06302 3.81507 3.80986 4.0152 3.46344C4.21531 3.11684 4.27015 2.70452 4.16657 2.31793C4.06301 1.93147 3.80988 1.60204 3.46344 1.40192Z" fill="var(--fill-0, #282D34)"/>
</svg>
