<svg preserveAspectRatio="none" width="100%" height="100%" overflow="visible" style="display: block;" viewBox="0 0 245 116" fill="none" xmlns="http://www.w3.org/2000/svg">
<g id="Frame 2147208096">
<g clip-path="url(#clip0_0_1053)">
<path id="Vector" d="M17.832 110.502C21.3169 109.771 24.8018 109.041 28.2907 108.33C31.7797 107.619 35.2726 106.928 38.7495 106.159C42.2263 105.389 45.6871 104.543 49.2082 103.987C52.7294 103.431 56.311 103.167 59.667 101.815C63.0229 100.464 66.1532 98.0256 70.1257 99.6439C74.0983 101.262 78.9131 106.937 81.4922 101.844C84.0713 96.7512 84.4147 80.8904 87.14 76.5017C89.8653 72.113 94.9726 79.1964 98.6426 79.3578C102.313 79.5192 104.546 72.7586 107.422 69.0983C110.299 65.4379 113.819 64.8779 117.109 63.2106C120.4 61.5433 123.46 58.7686 126.479 55.7928C129.497 52.817 132.474 49.64 136.211 50.1237C139.948 50.6075 144.445 54.7519 148.259 55.6029C152.072 56.454 155.201 54.0116 158.4 51.9012C161.598 49.7909 164.865 48.0126 168.268 46.888C171.671 45.7633 175.21 45.2922 178.727 44.7164C182.244 44.1406 185.739 43.46 189.141 42.3262C192.542 41.1925 195.849 39.6057 199.418 39.2803C202.987 38.9549 206.818 39.891 209.831 36.8902C212.845 33.8893 215.041 26.9516 218.157 24.4447C221.273 21.9377 225.309 23.8615 229.069 24.4591C232.83 25.0566 241.5 24.4591 246 20" stroke="var(--stroke-0, #00B565)" stroke-width="2" stroke-linecap="round" stroke-linejoin="round"/>
<path id="Vector (Stroke)" opacity="0.3" d="M217.53 23.666C219.392 22.1685 221.505 22.0371 223.5 22.2958C224.492 22.4244 225.494 22.6546 226.446 22.879C227.416 23.1074 228.332 23.3293 229.227 23.4715C230.977 23.7495 233.965 23.7571 237.064 23.145C240.172 22.531 243.245 21.3221 245.297 19.2893C245.689 18.9009 246.322 18.904 246.71 19.296C247.099 19.6883 247.096 134.295 246.704 134.684C243.501 134.651 240.755 134.773 237.452 134.684C233.501 134.577 231.001 134.773 229.001 134.773C228.016 134.617 226.801 134.723 225.824 134.684C224.696 134.651 224.671 134.651 223.001 134.651C221.136 134.651 220.501 134.651 219.256 134.651C217.25 134.651 217.501 134.651 216.248 134.651C215.37 134.684 215.501 134.651 214.001 134.651C212.262 134.651 212.501 134.651 210.537 134.684C207.775 134.773 207.001 134.723 204.935 134.723C203.739 134.723 203.035 134.685 202.133 134.69C201.214 134.695 200.351 134.575 199.509 134.651C197.773 134.651 196.501 134.69 194.54 134.684C193.241 134.723 191.501 134.773 189.501 134.773C187.501 134.773 188.215 134.773 187.001 134.773C183.346 134.773 183.281 134.773 178.878 134.773C175.641 134.773 172.501 134.773 168.583 134.684C167.041 134.773 162.638 134.684 158.951 134.684C157.312 134.684 155.95 134.684 153.981 134.684C151.939 134.684 150.232 134.684 148.042 134.684C145.597 134.684 144.16 134.684 141.704 134.684C139.067 134.684 138.001 134.684 136.084 134.684C134.553 134.684 133.433 134.684 131.648 134.684C129.862 134.684 129.002 134.773 126.501 134.773C122.501 134.773 122.501 134.773 118.501 134.773C117.001 134.773 116.001 134.773 115.001 134.773C114.001 134.773 113.501 134.773 112.558 134.773C110.886 134.773 110.1 134.773 108.202 134.773C107.239 134.773 107.338 134.773 106.198 134.773C105.101 134.773 104.938 134.773 104.166 134.773C102.34 134.773 102.094 134.773 101.001 134.773C99.3989 134.773 99.0006 134.773 97.7851 134.773C96.5006 134.773 96.5006 134.773 95.1337 134.773C94.0006 134.773 94.4039 134.684 93.5006 134.684C92.8662 134.684 92.5006 134.684 92.0006 134.684C90.803 134.684 90.6546 134.719 90.0006 134.684C89.7017 134.668 89.3098 134.684 89.0006 134.684C88.6913 134.684 88.5006 134.684 88.0006 134.773C87.1612 134.773 87.7237 134.773 86.5006 134.773C86.2084 134.773 85.8414 134.773 85.2513 134.773C84.3963 134.773 84.7977 134.773 84.0006 134.773C83.2953 134.773 83.1806 134.773 82.0006 134.773C81.0842 134.773 81.0006 134.773 79.7116 134.773C78.5155 134.99 77.2178 134.773 75.9806 134.773C74.9008 134.248 73.6982 135.348 72.6725 134.684C71.6116 133.997 70.6418 135.048 69.7494 134.684C68.0523 133.993 66.5368 134.159 64.9875 134.684C64.1983 134.952 60.8731 134.381 60.0479 134.773C59.2385 135.158 58.3758 134.421 57.5006 134.773C54.0054 136.181 52.7751 134.146 49.3647 134.684C45.8837 135.233 42.4726 133.909 38.9666 134.684C35.479 135.456 31.9723 133.975 28.4908 134.684C25.0052 135.394 21.5232 133.954 18.038 134.684C17.4975 134.797 16.9674 134.247 16.854 133.707C16.7408 133.166 17.0871 109.636 17.6275 109.523C21.112 108.793 24.5997 108.062 28.0919 107.35C31.5882 106.638 35.0681 105.949 38.5342 105.182C41.9817 104.419 45.4921 103.561 49.0532 102.999C52.685 102.426 56.0773 102.183 59.2939 100.888C60.0966 100.564 60.8845 100.177 61.73 99.7755C62.5596 99.3811 63.4354 98.9775 64.3448 98.669C66.1926 98.0422 68.2285 97.7909 70.5038 98.7178C71.5976 99.1633 72.7195 99.8742 73.7592 100.547C74.834 101.243 75.8272 101.903 76.77 102.362C77.7253 102.827 78.4527 102.993 79.0086 102.892C79.4878 102.805 80.0515 102.478 80.6013 101.393C81.1771 100.256 81.6611 98.4317 82.0978 96.1639C82.53 93.9199 82.8967 91.3489 83.2725 88.7647C83.6461 86.1949 84.0294 83.6108 84.4925 81.392C84.948 79.2092 85.5069 77.2363 86.2908 75.9738C86.7001 75.3148 87.1934 74.8096 87.7817 74.4834C88.3757 74.154 89.0055 74.0422 89.6259 74.0755C90.8105 74.1394 92.003 74.7377 93.0514 75.365C93.5917 75.6883 94.1361 76.0466 94.6585 76.3898C95.1881 76.7377 95.6963 77.0709 96.1929 77.3668C97.2189 77.9781 98.039 78.3304 98.6869 78.359C99.2639 78.3844 99.8509 78.148 100.503 77.5819C101.166 77.0072 101.818 76.1575 102.491 75.1176C103.163 74.0788 103.806 72.9322 104.491 71.7631C105.163 70.6152 105.871 69.4535 106.637 68.48C108.194 66.4986 109.929 65.359 111.673 64.508C112.533 64.0881 113.404 63.7347 114.233 63.3939C115.073 63.0489 115.875 62.7155 116.658 62.3189C119.795 60.729 122.759 58.0557 125.777 55.0805C127.256 53.6227 128.828 52.0073 130.505 50.8403C132.202 49.6589 134.131 48.8462 136.34 49.1321C138.448 49.4049 140.689 50.6856 142.71 51.861C144.836 53.0981 146.758 54.2434 148.477 54.6271C150.102 54.9896 151.607 54.6648 153.14 53.9551C154.71 53.2283 156.199 52.1555 157.849 51.0663C161.089 48.9285 164.439 47.1002 167.955 45.938C171.453 44.7821 175.094 44.2984 178.566 43.7299C182.068 43.1565 185.501 42.4854 188.825 41.3773C189.658 41.0999 190.487 40.7935 191.332 40.4798C192.172 40.168 193.03 39.8485 193.895 39.5538C195.623 38.9642 197.429 38.4572 199.328 38.284C200.271 38.1981 201.225 38.1964 202.122 38.1915C203.036 38.1866 203.897 38.1787 204.732 38.0935C206.373 37.926 207.836 37.4669 209.127 36.1817C210.504 34.8103 211.728 32.4909 213.078 30.0054C213.734 28.796 214.413 27.565 215.13 26.4753C215.844 25.3915 216.633 24.3882 217.53 23.666Z" fill="url(#paint0_linear_0_1053)"/>
</g>
</g>
<defs>
<linearGradient id="paint0_linear_0_1053" x1="182" y1="21.5" x2="148.114" y2="155.154" gradientUnits="userSpaceOnUse">
<stop stop-color="#00B565" stop-opacity="0.4"/>
<stop offset="1" stop-color="#00B565" stop-opacity="0"/>
</linearGradient>
<clipPath id="clip0_0_1053">
<path d="M0 0H245V100C245 108.837 237.837 116 229 116H0V0Z" fill="white"/>
</clipPath>
</defs>
</svg>
