<svg preserveAspectRatio="none" width="100%" height="100%" overflow="visible" style="display: block;" viewBox="0 0 16.25 16.25" fill="none" xmlns="http://www.w3.org/2000/svg">
<g id="Frame 2087327929">
<path id="coins" d="M16.25 10.0158C16.2492 8.35748 14.1392 7.08 11.25 6.91833V3.11666C11.2492 0.964159 8.425 0 5.625 0C2.825 0 0.000833333 0.963325 0 3.11666V12.3C0 14.4525 2.825 15.4167 5.625 15.4167C5.91417 15.4167 6.21084 15.39 6.50584 15.3608C7.58417 15.9633 9.10667 16.25 10.625 16.25C13.4242 16.25 16.25 15.2858 16.25 13.1333V10.0158C16.25 10.0167 16.25 10.0167 16.25 10.0158ZM15 10.0175C15 10.8992 13.1292 11.885 10.625 11.885C8.12083 11.885 6.25 10.8992 6.25 10.0175C6.25 9.69416 6.50584 9.35751 6.94834 9.06001C6.96334 9.05167 6.97502 9.03998 6.98919 9.03081C7.75919 8.53081 9.06917 8.15002 10.625 8.15002C13.1292 8.15002 15 9.13583 15 10.0175ZM10 6.06669C10 6.44252 9.66999 6.75664 9.35582 6.97581C8.19666 7.11331 7.19584 7.43752 6.44501 7.89419C6.17834 7.91669 5.90998 7.93335 5.62581 7.93335C3.26915 7.93335 1.25081 6.90669 1.25081 6.06669V5.19002C2.33498 5.90002 3.98248 6.235 5.62581 6.235C7.26915 6.235 8.91665 5.90002 10.0008 5.19002V6.06669H10ZM1.25 7.99917C2.2525 8.6775 3.72834 9.10165 5.19918 9.17165C5.07251 9.43915 5 9.72085 5 10.0167C5 10.0167 5 10.0167 5 10.0175V11.0242C2.92333 10.865 1.25 9.94916 1.25 9.18416V7.99917ZM5.625 1.25C7.77583 1.25 10 1.94836 10 3.11752C10 4.33086 7.74583 4.985 5.625 4.985C3.50417 4.985 1.25 4.33086 1.25 3.11752C1.25 1.94836 3.47417 1.25 5.625 1.25ZM1.25 12.3V11.1158C2.2075 11.7633 3.595 12.1792 5 12.2758V13.1333C5 13.5125 5.09167 13.8525 5.25167 14.1592C3.22417 14.0834 1.25 13.4008 1.25 12.3ZM10.625 15C9.27583 15 7.89834 14.725 7.05917 14.2317C6.56001 13.9383 6.25081 13.5683 6.25081 13.1333V12.0217C7.26581 12.71 8.82081 13.135 10.6258 13.135C12.4308 13.135 13.9858 12.71 15.0008 12.0217V13.1333C15 14.3017 12.7758 15 10.625 15Z" fill="var(--fill-0, #282D34)"/>
</g>
</svg>
