<svg preserveAspectRatio="none" width="100%" height="100%" overflow="visible" style="display: block;" viewBox="0 0 15.9588 15.9585" fill="none" xmlns="http://www.w3.org/2000/svg">
<g id="Group 2087330403">
<path id="badge-discount-alt" d="M6.33763 10.5042L10.5043 6.3375C10.7485 6.09333 10.7485 5.6975 10.5043 5.45333C10.2601 5.20916 9.86426 5.20916 9.6201 5.45333L5.45343 9.62C5.20926 9.86416 5.20926 10.26 5.45343 10.5042C5.5751 10.6258 5.73512 10.6875 5.89512 10.6875C6.05512 10.6875 6.21596 10.6267 6.33763 10.5042ZM6.7309 5.89583C6.7309 5.43583 6.3584 5.0625 5.89756 5.0625H5.88922C5.42922 5.0625 5.06006 5.43583 5.06006 5.89583C5.06006 6.35583 5.43756 6.72917 5.89756 6.72917C6.3584 6.72917 6.7309 6.35583 6.7309 5.89583ZM10.8976 10.0625C10.8976 9.6025 10.5251 9.22917 10.0642 9.22917H10.0559C9.59589 9.22917 9.22672 9.6025 9.22672 10.0625C9.22672 10.5225 9.60423 10.8958 10.0642 10.8958C10.5251 10.8958 10.8976 10.5225 10.8976 10.0625Z" fill="var(--fill-0, #282D34)"/>
<path id="Star 4 (Stroke)" d="M7.38525 0.248535C7.71162 -0.0827566 8.24632 -0.082659 8.57275 0.248535L10.1616 1.86182C10.3001 2.00237 10.4835 2.08879 10.6782 2.10693L10.7622 2.10986L13.0259 2.09326C13.491 2.08978 13.8692 2.468 13.8657 2.93311L13.8481 5.19678C13.8465 5.42206 13.9367 5.63825 14.0972 5.79639L15.7104 7.38525C16.0417 7.71157 16.0415 8.24631 15.7104 8.57275L14.0972 10.1616C13.9366 10.3198 13.8465 10.5369 13.8481 10.7622L13.8657 13.0259C13.8692 13.491 13.491 13.8692 13.0259 13.8657L10.7622 13.8481C10.5369 13.8465 10.3198 13.9366 10.1616 14.0972L8.57275 15.7104L8.50928 15.7681C8.20219 16.0219 7.7557 16.0221 7.44873 15.7681L7.38525 15.7104L5.79639 14.0972C5.63825 13.9367 5.42206 13.8465 5.19678 13.8481L2.93311 13.8657L2.84619 13.8618C2.42161 13.8213 2.09 13.4618 2.09326 13.0259L2.10986 10.7622C2.11134 10.5651 2.04306 10.3745 1.91846 10.2241L1.86182 10.1616L0.248535 8.57275C-0.0826592 8.24632 -0.0827567 7.71162 0.248535 7.38525L1.86182 5.79639C2.02218 5.63827 2.11155 5.42199 2.10986 5.19678L2.09326 2.93311C2.08978 2.468 2.468 2.08978 2.93311 2.09326L5.19678 2.10986C5.39397 2.11134 5.58441 2.04316 5.73486 1.91846L5.79639 1.86182L7.38525 0.248535ZM6.62744 2.68018C6.24791 3.06538 5.72875 3.2809 5.18799 3.27686L3.26123 3.26123L3.27686 5.18799C3.2809 5.72875 3.06538 6.24791 2.68018 6.62744L1.30713 7.979L2.68018 9.33057C3.06544 9.71011 3.2809 10.2302 3.27686 10.771L3.26123 12.6958L5.18799 12.6821L5.38916 12.6909C5.78952 12.7283 6.1694 12.8855 6.479 13.1421L6.62744 13.2788L7.979 14.6499L9.33057 13.2788L9.47998 13.1421C9.84102 12.843 10.2979 12.6786 10.771 12.6821L12.6958 12.6958L12.6821 10.771C12.6781 10.2302 12.8935 9.71011 13.2788 9.33057L14.6499 7.979L13.2788 6.62744C12.8935 6.2479 12.6781 5.72879 12.6821 5.18799L12.6958 3.26123L10.771 3.27686C10.2302 3.2809 9.71011 3.06544 9.33057 2.68018L7.979 1.30713L6.62744 2.68018Z" fill="var(--fill-0, #282D34)"/>
</g>
</svg>
