<svg preserveAspectRatio="none" width="100%" height="100%" overflow="visible" style="display: block;" viewBox="0 0 32.8727 23.7883" fill="none" xmlns="http://www.w3.org/2000/svg">
<g id="Group">
<g id="Combined-Shape">
<path id="Vector" d="M21.1326 5.64343V1.03825C21.1326 0.467338 21.5479 0.0343554 22.1194 0.0343554L25.4089 0C26.0324 0 26.4825 0.415805 26.4825 1.03876V5.64394H29.3563C29.8908 5.63383 30.3329 6.05873 30.343 6.5963V8.89914C30.342 9.4357 29.906 9.86969 29.3694 9.86868C29.3649 9.86868 29.3608 9.86868 29.3563 9.86868H26.4825V16.2053C26.4825 17.1819 26.7725 17.8427 27.3632 18.2575C27.9235 18.6511 28.7546 18.8239 29.8661 18.836C29.9095 18.836 30.3784 18.8365 30.4223 18.8365C30.8498 18.8365 31.4783 19.4767 31.4783 19.9622V22.7324C31.4783 23.1719 30.7714 23.7883 30.4223 23.7883C30.3986 23.7883 29.9494 23.7883 29.9262 23.7883C28.801 23.7848 27.7426 23.6953 26.7397 23.4877C25.7939 23.2922 24.8971 22.9916 24.0408 22.5591C22.2401 21.6588 21.1321 19.8758 21.1321 17.5209V9.86818H19.24C18.9374 9.86818 18.5918 9.9091 18.3109 9.78279C18.22 9.95457 18.1285 10.1253 18.0371 10.2966C17.9401 10.478 17.8436 10.6594 17.7466 10.8407C17.6218 11.0747 17.497 11.3081 17.3722 11.542C17.2242 11.8194 17.0756 12.0967 16.9276 12.3741C16.7609 12.6864 16.5941 12.9986 16.4274 13.3108C16.2465 13.6493 16.0657 13.9878 15.8853 14.3263C15.6953 14.682 15.5054 15.0382 15.3149 15.3939C15.1204 15.7582 14.9254 16.1229 14.7309 16.4872C14.5363 16.8515 14.3418 17.2163 14.1468 17.5805C13.9568 17.9362 13.7669 18.2914 13.5769 18.6471C13.3965 18.9851 13.2162 19.3231 13.0353 19.6611C12.8691 19.9728 12.7024 20.284 12.5361 20.5958C12.3886 20.8721 12.2411 21.1485 12.093 21.4248C11.9688 21.6572 11.8445 21.8896 11.7207 22.1226C11.6247 22.3024 11.5287 22.4823 11.4327 22.6621C11.3696 22.7809 11.3059 22.8991 11.2427 23.0178C11.217 23.0663 11.1912 23.1143 11.1644 23.1649C10.974 23.563 10.6971 23.7706 10.3161 23.7706C9.9352 23.7534 9.64115 23.563 9.433 23.1992L0.170594 6.76909C-0.193172 6.0941 0.0321612 5.64343 0.776367 5.64343H4.82782C5.50281 5.64343 6.005 5.97234 6.31673 6.63015L10.2813 15.4257L14.1079 6.59579C14.3504 5.95516 14.8006 5.64343 15.4584 5.64343H21.1321H21.1326Z" fill="var(--fill-0, #031F45)"/>
</g>
<path id="Fill-20" fill-rule="evenodd" clip-rule="evenodd" d="M32.8722 21.3121C32.8722 22.6798 31.7637 23.7877 30.3961 23.7877C29.0284 23.7877 27.9205 22.6793 27.9205 21.3116C27.9205 19.9444 29.0289 18.836 30.3966 18.836C31.7643 18.836 32.8727 19.9444 32.8727 21.3121" fill="var(--fill-0, #00F0FF)"/>
</g>
</svg>
