<svg preserveAspectRatio="none" width="100%" height="100%" overflow="visible" style="display: block;" viewBox="0 0 14 15" fill="none" xmlns="http://www.w3.org/2000/svg">
<g id="Group 1000004116">
<path id="chart-bar-alt" d="M7.35897 0H6.64103C5.62944 0 5.02564 0.646923 5.02564 1.73077V13.2692C5.02564 14.3531 5.62944 15 6.64103 15H7.35897C8.37056 15 8.97436 14.3531 8.97436 13.2692V1.73077C8.97436 0.646923 8.37056 0 7.35897 0ZM7.89744 13.2692C7.89744 13.7223 7.78185 13.8462 7.35897 13.8462H6.64103C6.21815 13.8462 6.10256 13.7223 6.10256 13.2692V1.73077C6.10256 1.27769 6.21815 1.15385 6.64103 1.15385H7.35897C7.78185 1.15385 7.89744 1.27769 7.89744 1.73077V13.2692ZM12.3846 3.84615H11.6667C10.6551 3.84615 10.0513 4.49308 10.0513 5.57692V13.2692C10.0513 14.3531 10.6551 15 11.6667 15H12.3846C13.3962 15 14 14.3531 14 13.2692V5.57692C14 4.49308 13.3962 3.84615 12.3846 3.84615ZM12.9231 13.2692C12.9231 13.7223 12.8075 13.8462 12.3846 13.8462H11.6667C11.2438 13.8462 11.1282 13.7223 11.1282 13.2692V5.57692C11.1282 5.12385 11.2438 5 11.6667 5H12.3846C12.8075 5 12.9231 5.12385 12.9231 5.57692V13.2692ZM2.33333 6.92308H1.61538C0.603795 6.92308 0 7.57 0 8.65385V13.2692C0 14.3531 0.603795 15 1.61538 15H2.33333C3.34492 15 3.94872 14.3531 3.94872 13.2692V8.65385C3.94872 7.57 3.34492 6.92308 2.33333 6.92308ZM2.87179 13.2692C2.87179 13.7223 2.75621 13.8462 2.33333 13.8462H1.61538C1.19251 13.8462 1.07692 13.7223 1.07692 13.2692V8.65385C1.07692 8.20077 1.19251 8.07692 1.61538 8.07692H2.33333C2.75621 8.07692 2.87179 8.20077 2.87179 8.65385V13.2692Z" fill="var(--fill-0, #282D34)"/>
</g>
</svg>
