<svg preserveAspectRatio="none" width="100%" height="100%" overflow="visible" style="display: block;" viewBox="0 0 16 16.0016" fill="none" xmlns="http://www.w3.org/2000/svg">
<g id="Group 2087327704">
<path id="Subtract" d="M6.28711 0.624244C7.27895 -0.208081 8.72105 -0.208081 9.71289 0.624244L14.7344 4.83518C15.5188 5.48585 16 5.97296 16 7.71409V12.924C16 14.908 14.9069 16.0012 12.9229 16.0012H3.07715C1.09315 16.0012 0 14.908 0 12.924V7.71409C0 5.97296 0.481215 5.48585 1.26562 4.83518L6.28711 0.624244ZM11.9238 6.70139C11.6895 6.46708 11.3105 6.46708 11.0762 6.70139L8 9.77659L6.67383 8.45139C6.43951 8.21708 6.06049 8.21708 5.82617 8.45139L4.07617 10.2014C3.84188 10.4357 3.84187 10.8147 4.07617 11.049C4.31048 11.2834 4.68951 11.2833 4.92383 11.049L6.25 9.72385L7.57617 11.049C7.81048 11.2834 8.18951 11.2833 8.42383 11.049L11.9238 7.54905C12.1581 7.31473 12.1581 6.93571 11.9238 6.70139Z" fill="var(--fill-0, #0A36C7)"/>
</g>
</svg>
