<svg preserveAspectRatio="none" width="100%" height="100%" overflow="visible" style="display: block;" viewBox="0 0 18.4 18.4" fill="none" xmlns="http://www.w3.org/2000/svg">
<g id="ico_language">
<mask id="path-1-outside-1_0_1291" maskUnits="userSpaceOnUse" x="-0.799999" y="-0.8" width="20" height="20" fill="black">
<rect fill="white" x="-0.799999" y="-0.8" width="20" height="20"/>
<path d="M17.4939 5.70551C16.6273 3.64869 15.0273 1.98724 13.0046 1.04372C10.9819 0.100205 8.68078 -0.0580696 6.54794 0.599625C4.41511 1.25732 2.60274 2.68406 1.46268 4.60287C0.322627 6.52167 -0.0637807 8.79565 0.378476 10.9833C0.820734 13.171 2.0601 15.1163 3.85598 16.4416C5.65185 17.7669 7.87611 18.3776 10.0969 18.1552C12.3178 17.9327 14.3767 16.893 15.8741 15.2379C17.3714 13.5828 18.2004 11.4303 18.2 9.19838C18.2017 7.99857 17.9618 6.81069 17.4948 5.70551M9.58671 5.5153V0.973591C10.2687 1.09615 10.9149 1.3691 11.4783 1.77261C12.0416 2.17612 12.508 2.70006 12.8436 3.30636C13.1437 3.77608 13.3985 4.27329 13.6044 4.79125C12.3123 5.24412 10.9557 5.48646 9.58671 5.50902M13.8503 5.46775C14.1937 6.5558 14.3807 7.68714 14.4057 8.82783H9.58671V6.24295C10.8019 6.22054 12.0087 6.03711 13.1756 5.69744C13.4035 5.63015 13.6314 5.55478 13.853 5.47403M14.2809 4.51939C14.0582 3.96079 13.783 3.42455 13.4591 2.91786C13.1468 2.42621 12.7759 1.97429 12.3546 1.57203C13.5667 2.07245 14.6429 2.85315 15.4949 3.85007C15.1103 4.10772 14.7045 4.33223 14.2818 4.52119M9.58671 12.1538V9.56175H14.4066C14.3815 10.7021 14.1945 11.8332 13.8512 12.9209C12.4801 12.4378 11.0402 12.1794 9.58671 12.1538ZM13.6044 13.6037C13.3984 14.1213 13.1436 14.6182 12.8436 15.0877C12.508 15.694 12.0416 16.2179 11.4783 16.6215C10.9149 17.025 10.2687 17.2979 9.58671 17.4205V12.8815C10.956 12.906 12.3125 13.1501 13.6044 13.6046M13.4591 15.4789C13.7835 14.9714 14.059 14.4342 14.2818 13.8747C14.7044 14.0634 15.1102 14.2876 15.4949 14.5449C14.643 15.5419 13.5668 16.3226 12.3546 16.8229C12.7758 16.4212 13.1466 15.9699 13.4591 15.4789ZM17.4634 9.55727C17.3952 11.1441 16.8671 12.6768 15.9435 13.9689C15.4971 13.6664 15.0241 13.4051 14.5304 13.1883C14.9075 12.0134 15.1122 10.79 15.1378 9.55637L17.4634 9.55727ZM17.4634 8.82962H15.1378C15.1123 7.59566 14.9077 6.37194 14.5304 5.19679C15.0238 4.98016 15.4968 4.71952 15.9435 4.41801C16.8674 5.71029 17.3955 7.2434 17.4634 8.83052M3.92617 13.2036C3.43376 13.4207 2.962 13.682 2.51664 13.9841C1.58923 12.6899 1.05918 11.1534 0.991369 9.56265H3.31606C3.34167 10.7995 3.5472 12.026 3.92617 13.2036ZM0.990472 8.83501C1.05829 7.24425 1.58833 5.70775 2.51574 4.41352C2.96111 4.71564 3.43287 4.97689 3.92527 5.1941C3.54629 6.3717 3.34076 7.59819 3.31516 8.83501H0.990472ZM8.86355 12.8824V17.4232C8.18151 17.3006 7.53534 17.0277 6.97198 16.6242C6.40861 16.2206 5.94221 15.6967 5.60665 15.0904C5.30757 14.6229 5.05342 14.1281 4.84761 13.6127C6.13822 13.1561 7.49389 12.9101 8.86265 12.8841M4.60087 12.9317C4.25578 11.8415 4.06787 10.7077 4.0428 9.56444H8.86355V12.1565C7.65279 12.1808 6.45057 12.3652 5.28814 12.7047C5.05666 12.7738 4.82518 12.8501 4.60087 12.9317ZM4.1747 13.8872C4.39741 14.4424 4.67198 14.9753 4.99475 15.4789C5.30706 15.9706 5.67793 16.4225 6.09923 16.8247C4.89059 16.3259 3.81703 15.5484 2.96614 14.5557C3.34922 14.2978 3.75352 14.073 4.1747 13.8836M8.86355 0.973591V5.51441C7.49479 5.4885 6.13911 5.24251 4.84851 4.78587C5.05432 4.27044 5.30847 3.77566 5.60755 3.30815C5.94311 2.70185 6.40951 2.17791 6.97287 1.7744C7.53624 1.37089 8.18241 1.09794 8.86445 0.975385M4.99475 2.91786C4.67169 3.42318 4.39711 3.95791 4.1747 4.51491C3.75352 4.32558 3.34921 4.10076 2.96614 3.84289C3.81683 2.84947 4.89041 2.07134 6.09923 1.57203C5.67796 1.97429 5.30709 2.42621 4.99475 2.91786ZM4.60177 5.46775C4.82607 5.5503 5.05666 5.62656 5.28814 5.69475C6.45056 6.03432 7.65279 6.21865 8.86355 6.24295V8.83501H4.0437C4.06876 7.69177 4.25668 6.55795 4.60177 5.46775Z"/>
</mask>
<path d="M17.4939 5.70551C16.6273 3.64869 15.0273 1.98724 13.0046 1.04372C10.9819 0.100205 8.68078 -0.0580696 6.54794 0.599625C4.41511 1.25732 2.60274 2.68406 1.46268 4.60287C0.322627 6.52167 -0.0637807 8.79565 0.378476 10.9833C0.820734 13.171 2.0601 15.1163 3.85598 16.4416C5.65185 17.7669 7.87611 18.3776 10.0969 18.1552C12.3178 17.9327 14.3767 16.893 15.8741 15.2379C17.3714 13.5828 18.2004 11.4303 18.2 9.19838C18.2017 7.99857 17.9618 6.81069 17.4948 5.70551M9.58671 5.5153V0.973591C10.2687 1.09615 10.9149 1.3691 11.4783 1.77261C12.0416 2.17612 12.508 2.70006 12.8436 3.30636C13.1437 3.77608 13.3985 4.27329 13.6044 4.79125C12.3123 5.24412 10.9557 5.48646 9.58671 5.50902M13.8503 5.46775C14.1937 6.5558 14.3807 7.68714 14.4057 8.82783H9.58671V6.24295C10.8019 6.22054 12.0087 6.03711 13.1756 5.69744C13.4035 5.63015 13.6314 5.55478 13.853 5.47403M14.2809 4.51939C14.0582 3.96079 13.783 3.42455 13.4591 2.91786C13.1468 2.42621 12.7759 1.97429 12.3546 1.57203C13.5667 2.07245 14.6429 2.85315 15.4949 3.85007C15.1103 4.10772 14.7045 4.33223 14.2818 4.52119M9.58671 12.1538V9.56175H14.4066C14.3815 10.7021 14.1945 11.8332 13.8512 12.9209C12.4801 12.4378 11.0402 12.1794 9.58671 12.1538ZM13.6044 13.6037C13.3984 14.1213 13.1436 14.6182 12.8436 15.0877C12.508 15.694 12.0416 16.2179 11.4783 16.6215C10.9149 17.025 10.2687 17.2979 9.58671 17.4205V12.8815C10.956 12.906 12.3125 13.1501 13.6044 13.6046M13.4591 15.4789C13.7835 14.9714 14.059 14.4342 14.2818 13.8747C14.7044 14.0634 15.1102 14.2876 15.4949 14.5449C14.643 15.5419 13.5668 16.3226 12.3546 16.8229C12.7758 16.4212 13.1466 15.9699 13.4591 15.4789ZM17.4634 9.55727C17.3952 11.1441 16.8671 12.6768 15.9435 13.9689C15.4971 13.6664 15.0241 13.4051 14.5304 13.1883C14.9075 12.0134 15.1122 10.79 15.1378 9.55637L17.4634 9.55727ZM17.4634 8.82962H15.1378C15.1123 7.59566 14.9077 6.37194 14.5304 5.19679C15.0238 4.98016 15.4968 4.71952 15.9435 4.41801C16.8674 5.71029 17.3955 7.2434 17.4634 8.83052M3.92617 13.2036C3.43376 13.4207 2.962 13.682 2.51664 13.9841C1.58923 12.6899 1.05918 11.1534 0.991369 9.56265H3.31606C3.34167 10.7995 3.5472 12.026 3.92617 13.2036ZM0.990472 8.83501C1.05829 7.24425 1.58833 5.70775 2.51574 4.41352C2.96111 4.71564 3.43287 4.97689 3.92527 5.1941C3.54629 6.3717 3.34076 7.59819 3.31516 8.83501H0.990472ZM8.86355 12.8824V17.4232C8.18151 17.3006 7.53534 17.0277 6.97198 16.6242C6.40861 16.2206 5.94221 15.6967 5.60665 15.0904C5.30757 14.6229 5.05342 14.1281 4.84761 13.6127C6.13822 13.1561 7.49389 12.9101 8.86265 12.8841M4.60087 12.9317C4.25578 11.8415 4.06787 10.7077 4.0428 9.56444H8.86355V12.1565C7.65279 12.1808 6.45057 12.3652 5.28814 12.7047C5.05666 12.7738 4.82518 12.8501 4.60087 12.9317ZM4.1747 13.8872C4.39741 14.4424 4.67198 14.9753 4.99475 15.4789C5.30706 15.9706 5.67793 16.4225 6.09923 16.8247C4.89059 16.3259 3.81703 15.5484 2.96614 14.5557C3.34922 14.2978 3.75352 14.073 4.1747 13.8836M8.86355 0.973591V5.51441C7.49479 5.4885 6.13911 5.24251 4.84851 4.78587C5.05432 4.27044 5.30847 3.77566 5.60755 3.30815C5.94311 2.70185 6.40951 2.17791 6.97287 1.7744C7.53624 1.37089 8.18241 1.09794 8.86445 0.975385M4.99475 2.91786C4.67169 3.42318 4.39711 3.95791 4.1747 4.51491C3.75352 4.32558 3.34921 4.10076 2.96614 3.84289C3.81683 2.84947 4.89041 2.07134 6.09923 1.57203C5.67796 1.97429 5.30709 2.42621 4.99475 2.91786ZM4.60177 5.46775C4.82607 5.5503 5.05666 5.62656 5.28814 5.69475C6.45056 6.03432 7.65279 6.21865 8.86355 6.24295V8.83501H4.0437C4.06876 7.69177 4.25668 6.55795 4.60177 5.46775Z" fill="#282D34"/>
<path d="M18.2 9.19838L18 9.1981V9.19842L18.2 9.19838ZM9.58671 0.973591L9.62208 0.776744L9.38671 0.734449V0.973591H9.58671ZM12.8436 3.30636L12.6683 3.4034L12.6751 3.41403L12.8436 3.30636ZM13.6044 4.79125L13.6706 4.97999L13.8673 4.91105L13.7903 4.71735L13.6044 4.79125ZM14.4057 8.82783V9.02783H14.6101L14.6056 8.82346L14.4057 8.82783ZM9.58671 8.82783H9.38671V9.02783H9.58671V8.82783ZM9.58671 6.24295L9.58302 6.04298L9.38671 6.0466V6.24295H9.58671ZM13.1756 5.69744L13.2315 5.88947L13.2322 5.88925L13.1756 5.69744ZM13.4591 2.91786L13.2903 3.02511L13.2906 3.02559L13.4591 2.91786ZM12.3546 1.57203L12.4309 1.38717L12.2165 1.71668L12.3546 1.57203ZM15.4949 3.85007L15.6062 4.01623L15.793 3.89108L15.6469 3.72014L15.4949 3.85007ZM9.58671 12.1538H9.38671V12.3503L9.58319 12.3538L9.58671 12.1538ZM9.58671 9.56175V9.36175H9.38671V9.56175H9.58671ZM14.4066 9.56175L14.6065 9.56614L14.611 9.36175H14.4066V9.56175ZM13.8512 12.9209L13.7847 13.1096L13.9797 13.1783L14.0419 12.9811L13.8512 12.9209ZM12.8436 15.0877L12.6747 14.9798L12.6686 14.9909L12.8436 15.0877ZM9.58671 17.4205H9.38671V17.6596L9.62208 17.6173L9.58671 17.4205ZM9.58671 12.8815L9.59029 12.6815L9.38671 12.6778V12.8815H9.58671ZM13.4591 15.4789L13.2906 15.3712L13.2904 15.3715L13.4591 15.4789ZM14.2818 13.8747L14.3634 13.6921L14.1731 13.6071L14.096 13.8007L14.2818 13.8747ZM15.4949 14.5449L15.6469 14.6748L15.7931 14.5038L15.6061 14.3787L15.4949 14.5449ZM12.3546 16.8229L12.2166 16.6782L12.4309 17.0078L12.3546 16.8229ZM17.4634 9.55727L17.6632 9.56585L17.6722 9.35735L17.4635 9.35727L17.4634 9.55727ZM15.9435 13.9689L15.8313 14.1345L15.9928 14.2439L16.1062 14.0852L15.9435 13.9689ZM14.5304 13.1883L14.3399 13.1272L14.2848 13.2989L14.4499 13.3714L14.5304 13.1883ZM15.1378 9.55637L15.1379 9.35637L14.9419 9.35629L14.9378 9.55221L15.1378 9.55637ZM15.1378 8.82962L14.9378 8.83376L14.9419 9.02962H15.1378V8.82962ZM14.5304 5.19679L14.45 5.01366L14.2848 5.08617L14.3399 5.25793L14.5304 5.19679ZM15.9435 4.41801L16.1062 4.30169L15.993 4.14332L15.8316 4.25224L15.9435 4.41801ZM3.92617 13.2036L4.00688 13.3865L4.17175 13.3138L4.11655 13.1423L3.92617 13.2036ZM2.51664 13.9841L2.35407 14.1006L2.46761 14.2591L2.62892 14.1496L2.51664 13.9841ZM0.991369 9.56265V9.36265H0.782661L0.79155 9.57117L0.991369 9.56265ZM3.31606 9.56265L3.51602 9.55851L3.51196 9.36265H3.31606V9.56265ZM0.990472 8.83501L0.790653 8.82649L0.781764 9.03501H0.990472V8.83501ZM2.51574 4.41352L2.62802 4.24801L2.46671 4.13858L2.35317 4.29703L2.51574 4.41352ZM3.92527 5.1941L4.11565 5.25537L4.17086 5.08384L4.00599 5.01111L3.92527 5.1941ZM3.31516 8.83501V9.03501H3.51106L3.51512 8.83915L3.31516 8.83501ZM8.86355 17.4232L8.82818 17.62L9.06355 17.6623V17.4232H8.86355ZM5.60665 15.0904L5.782 14.9934L5.77513 14.9826L5.60665 15.0904ZM4.84761 13.6127L4.7809 13.4241L4.58469 13.4936L4.66187 13.6869L4.84761 13.6127ZM4.60087 12.9317L4.4102 12.9921L4.47318 13.191L4.66928 13.1196L4.60087 12.9317ZM4.0428 9.56444V9.36444H3.83837L3.84285 9.56883L4.0428 9.56444ZM8.86355 9.56444H9.06355V9.36444H8.86355V9.56444ZM8.86355 12.1565L8.86757 12.3565L9.06355 12.3525V12.1565H8.86355ZM5.28814 12.7047L5.23206 12.5127L5.23094 12.5131L5.28814 12.7047ZM4.99475 15.4789L5.16357 15.3717L5.16314 15.371L4.99475 15.4789ZM6.09923 16.8247L6.02293 17.0096L6.23734 16.6801L6.09923 16.8247ZM2.96614 14.5557L2.85446 14.3897L2.66807 14.5152L2.81429 14.6858L2.96614 14.5557ZM8.86355 5.51441L8.85977 5.71437L9.06355 5.71823V5.51441H8.86355ZM4.84851 4.78587L4.66277 4.7117L4.58558 4.90499L4.78179 4.97441L4.84851 4.78587ZM5.60755 3.30815L5.77637 3.41615L5.78254 3.405L5.60755 3.30815ZM4.99475 2.91786L5.16326 3.02559L5.16357 3.02511L4.99475 2.91786ZM4.1747 4.51491L4.09269 4.69732L4.28304 4.78289L4.36043 4.58907L4.1747 4.51491ZM2.96614 3.84289L2.81423 3.71281L2.66816 3.88339L2.85446 4.0088L2.96614 3.84289ZM6.09923 1.57203L6.23735 1.71668L6.02287 1.38718L6.09923 1.57203ZM4.60177 5.46775L4.67084 5.28006L4.4743 5.20773L4.41109 5.40739L4.60177 5.46775ZM5.28814 5.69475L5.23163 5.8866L5.23206 5.88672L5.28814 5.69475ZM8.86355 6.24295H9.06355V6.04692L8.86756 6.04299L8.86355 6.24295ZM8.86355 8.83501V9.03501H9.06355V8.83501H8.86355ZM4.0437 8.83501L3.84375 8.83062L3.83927 9.03501H4.0437V8.83501ZM17.4939 5.70551L17.6782 5.62786C16.7923 3.52532 15.1568 1.82696 13.0892 0.862473L13.0046 1.04372L12.9201 1.22497C14.8978 2.14753 16.4622 3.77205 17.3096 5.78317L17.4939 5.70551ZM13.0046 1.04372L13.0892 0.862473C11.0215 -0.102013 8.66924 -0.263805 6.48901 0.408506L6.54794 0.599625L6.60688 0.790745C8.69232 0.147665 10.9423 0.302423 12.9201 1.22497L13.0046 1.04372ZM6.54794 0.599625L6.48901 0.408506C4.30878 1.08082 2.45613 2.53926 1.29074 4.50071L1.46268 4.60287L1.63462 4.70503C2.74935 2.82886 4.52144 1.43382 6.60688 0.790745L6.54794 0.599625ZM1.46268 4.60287L1.29074 4.50071C0.125351 6.46216 -0.269643 8.78666 0.182442 11.023L0.378476 10.9833L0.574511 10.9437C0.142082 8.80463 0.519902 6.58119 1.63462 4.70503L1.46268 4.60287ZM0.378476 10.9833L0.182442 11.023C0.634527 13.2593 1.90144 15.2478 3.73722 16.6025L3.85598 16.4416L3.97473 16.2807C2.21877 14.9848 1.00694 13.0828 0.574511 10.9437L0.378476 10.9833ZM3.85598 16.4416L3.73722 16.6025C5.573 17.9573 7.84669 18.5815 10.1169 18.3542L10.0969 18.1552L10.077 17.9562C7.90553 18.1737 5.7307 17.5765 3.97473 16.2807L3.85598 16.4416ZM10.0969 18.1552L10.1169 18.3542C12.387 18.1268 14.4918 17.064 16.0224 15.3721L15.8741 15.2379L15.7258 15.1037C14.2617 16.7221 12.2485 17.7387 10.077 17.9562L10.0969 18.1552ZM15.8741 15.2379L16.0224 15.3721C17.553 13.6802 18.4004 11.4799 18.4 9.19834L18.2 9.19838L18 9.19842C18.0004 11.3808 17.1899 13.4854 15.7258 15.1037L15.8741 15.2379ZM18.2 9.19838L18.4 9.19866C18.4017 7.97201 18.1565 6.75756 17.679 5.62766L17.4948 5.70551L17.3106 5.78337C17.7672 6.86382 18.0016 8.02513 18 9.1981L18.2 9.19838ZM9.58671 5.5153H9.78671V0.973591H9.58671H9.38671V5.5153H9.58671ZM9.58671 0.973591L9.55134 1.17044C10.2041 1.28774 10.8226 1.54899 11.3618 1.9352L11.4783 1.77261L11.5947 1.61001C11.0072 1.18921 10.3334 0.904555 9.62208 0.776744L9.58671 0.973591ZM11.4783 1.77261L11.3618 1.9352C11.901 2.32142 12.3474 2.82289 12.6686 3.4032L12.8436 3.30636L13.0186 3.20951C12.6687 2.57722 12.1823 2.03082 11.5947 1.61001L11.4783 1.77261ZM12.8436 3.30636L12.6751 3.41403C12.9683 3.87308 13.2173 4.35897 13.4186 4.86515L13.6044 4.79125L13.7903 4.71735C13.5796 4.1876 13.3191 3.67909 13.0121 3.19868L12.8436 3.30636ZM13.6044 4.79125L13.5383 4.60251C12.2663 5.04829 10.931 5.28684 9.58341 5.30905L9.58671 5.50902L9.59 5.709C10.9805 5.68608 12.3582 5.43994 13.6706 4.97999L13.6044 4.79125ZM13.8503 5.46775L13.6596 5.52795C13.9973 6.59792 14.1812 7.71047 14.2057 8.8322L14.4057 8.82783L14.6056 8.82346C14.5803 7.66382 14.3902 6.51367 14.041 5.40755L13.8503 5.46775ZM14.4057 8.82783V8.62783H9.58671V8.82783V9.02783H14.4057V8.82783ZM9.58671 8.82783H9.78671V6.24295H9.58671H9.38671V8.82783H9.58671ZM9.58671 6.24295L9.59039 6.44291C10.8232 6.42018 12.0476 6.23408 13.2315 5.88947L13.1756 5.69744L13.1197 5.50541C11.9697 5.84013 10.7805 6.0209 9.58302 6.04298L9.58671 6.24295ZM13.1756 5.69744L13.2322 5.88925C13.4642 5.82075 13.6961 5.74407 13.9214 5.66195L13.853 5.47403L13.7845 5.28612C13.5667 5.36549 13.3427 5.43955 13.1189 5.50563L13.1756 5.69744ZM14.2809 4.51939L14.4667 4.44531C14.2393 3.87497 13.9583 3.32747 13.6276 2.81013L13.4591 2.91786L13.2906 3.02559C13.6077 3.52163 13.8771 4.04661 14.0952 4.59347L14.2809 4.51939ZM13.4591 2.91786L13.6279 2.81062C13.3069 2.3053 12.9257 1.84083 12.4927 1.42739L12.3546 1.57203L12.2165 1.71668C12.6261 2.10776 12.9866 2.54712 13.2903 3.02511L13.4591 2.91786ZM12.3546 1.57203L12.2783 1.7569C13.4612 2.24524 14.5114 3.00712 15.3428 3.98L15.4949 3.85007L15.6469 3.72014C14.7744 2.69917 13.6723 1.89965 12.4309 1.38717L12.3546 1.57203ZM15.4949 3.85007L15.3836 3.68391C15.0084 3.93525 14.6125 4.15427 14.2002 4.33861L14.2818 4.52119L14.3635 4.70377C14.7964 4.51019 15.2122 4.28018 15.6062 4.01623L15.4949 3.85007ZM9.58671 12.1538H9.78671V9.56175H9.58671H9.38671V12.1538H9.58671ZM9.58671 9.56175V9.76175H14.4066V9.56175V9.36175H9.58671V9.56175ZM14.4066 9.56175L14.2066 9.55736C14.182 10.6788 13.9981 11.791 13.6605 12.8607L13.8512 12.9209L14.0419 12.9811C14.391 11.8753 14.5811 10.7255 14.6065 9.56614L14.4066 9.56175ZM13.8512 12.9209L13.9177 12.7323C12.5263 12.242 11.0651 11.9798 9.59022 11.9538L9.58671 12.1538L9.58319 12.3538C11.0153 12.379 12.4339 12.6336 13.7847 13.1096L13.8512 12.9209ZM13.6044 13.6037L13.4186 13.5297C13.2172 14.0356 12.9683 14.5212 12.6751 14.98L12.8436 15.0877L13.0121 15.1954C13.3189 14.7153 13.5795 14.2071 13.7903 13.6777L13.6044 13.6037ZM12.8436 15.0877L12.6686 14.9909C12.3474 15.5712 11.901 16.0727 11.3618 16.4589L11.4783 16.6215L11.5947 16.7841C12.1823 16.3632 12.6687 15.8168 13.0186 15.1846L12.8436 15.0877ZM11.4783 16.6215L11.3618 16.4589C10.8226 16.8451 10.2041 17.1063 9.55134 17.2236L9.58671 17.4205L9.62208 17.6173C10.3334 17.4895 11.0072 17.2049 11.5947 16.7841L11.4783 16.6215ZM9.58671 17.4205H9.78671V12.8815H9.58671H9.38671V17.4205H9.58671ZM9.58671 12.8815L9.58313 13.0814C10.931 13.1056 12.2663 13.3459 13.5381 13.7933L13.6044 13.6046L13.6708 13.4159C12.3587 12.9544 10.981 12.7064 9.59029 12.6815L9.58671 12.8815ZM13.4591 15.4789L13.6276 15.5866C13.9588 15.0684 14.2401 14.52 14.4676 13.9487L14.2818 13.8747L14.096 13.8007C13.8778 14.3485 13.6081 14.8743 13.2906 15.3712L13.4591 15.4789ZM14.2818 13.8747L14.2003 14.0573C14.6125 14.2414 15.0084 14.4601 15.3837 14.7111L15.4949 14.5449L15.6061 14.3787C15.212 14.1151 14.7963 13.8854 14.3634 13.6921L14.2818 13.8747ZM15.4949 14.5449L15.3428 14.415C14.5115 15.3879 13.4612 16.1498 12.2783 16.6381L12.3546 16.8229L12.4309 17.0078C13.6723 16.4954 14.7745 15.6958 15.6469 14.6748L15.4949 14.5449ZM12.3546 16.8229L12.4927 16.9677C12.9255 16.5548 13.3067 16.0909 13.6278 15.5863L13.4591 15.4789L13.2904 15.3715C12.9866 15.8489 12.626 16.2877 12.2166 16.6782L12.3546 16.8229ZM17.4634 9.55727L17.2636 9.54868C17.197 11.0967 16.6819 12.592 15.7808 13.8526L15.9435 13.9689L16.1062 14.0852C17.0524 12.7616 17.5933 11.1914 17.6632 9.56585L17.4634 9.55727ZM15.9435 13.9689L16.0557 13.8033C15.5992 13.494 15.1156 13.2269 14.6108 13.0052L14.5304 13.1883L14.4499 13.3714C14.9326 13.5834 15.3949 13.8388 15.8313 14.1345L15.9435 13.9689ZM14.5304 13.1883L14.7208 13.2494C15.1039 12.0561 15.3117 10.8135 15.3377 9.56052L15.1378 9.55637L14.9378 9.55221C14.9126 10.7665 14.7112 11.9707 14.3399 13.1272L14.5304 13.1883ZM15.1378 9.55637L15.1377 9.75637L17.4633 9.75727L17.4634 9.55727L17.4635 9.35727L15.1379 9.35637L15.1378 9.55637ZM17.4634 8.82962V8.62962H15.1378V8.82962V9.02962H17.4634V8.82962ZM15.1378 8.82962L15.3377 8.82549C15.3118 7.57216 15.104 6.32924 14.7208 5.13566L14.5304 5.19679L14.3399 5.25793C14.7113 6.41464 14.9127 7.61916 14.9378 8.83376L15.1378 8.82962ZM14.5304 5.19679L14.6108 5.37992C15.1152 5.15847 15.5987 4.89201 16.0554 4.58378L15.9435 4.41801L15.8316 4.25224C15.3949 4.54702 14.9325 4.80186 14.45 5.01366L14.5304 5.19679ZM15.9435 4.41801L15.7808 4.53432C16.6821 5.79504 17.1973 7.29071 17.2636 8.83907L17.4634 8.83052L17.6632 8.82197C17.5936 7.19608 17.0527 5.62553 16.1062 4.30169L15.9435 4.41801ZM3.92617 13.2036L3.84545 13.0206C3.34202 13.2426 2.85969 13.5097 2.40436 13.8186L2.51664 13.9841L2.62892 14.1496C3.06431 13.8543 3.5255 13.5989 4.00688 13.3865L3.92617 13.2036ZM2.51664 13.9841L2.67921 13.8676C1.77444 12.605 1.25735 11.106 1.19119 9.55413L0.991369 9.56265L0.79155 9.57117C0.861022 11.2008 1.40401 12.7748 2.35407 14.1006L2.51664 13.9841ZM0.991369 9.56265V9.76265H3.31606V9.56265V9.36265H0.991369V9.56265ZM3.31606 9.56265L3.1161 9.56679C3.14212 10.823 3.35087 12.0687 3.73578 13.2648L3.92617 13.2036L4.11655 13.1423C3.74353 11.9832 3.54123 10.7759 3.51602 9.55851L3.31606 9.56265ZM0.990472 8.83501L1.19029 8.84353C1.25645 7.29161 1.77355 5.79264 2.67831 4.53001L2.51574 4.41352L2.35317 4.29703C1.40311 5.62286 0.860125 7.19688 0.790653 8.82649L0.990472 8.83501ZM2.51574 4.41352L2.40347 4.57903C2.85881 4.88791 3.34113 5.15502 3.84455 5.37709L3.92527 5.1941L4.00599 5.01111C3.52462 4.79877 3.06342 4.54336 2.62802 4.24801L2.51574 4.41352ZM3.92527 5.1941L3.73489 5.13283C3.34996 6.3289 3.14121 7.57465 3.1152 8.83087L3.31516 8.83501L3.51512 8.83915C3.54032 7.62174 3.74262 6.41449 4.11565 5.25537L3.92527 5.1941ZM3.31516 8.83501V8.63501H0.990472V8.83501V9.03501H3.31516V8.83501ZM8.86355 12.8824H8.66355V17.4232H8.86355H9.06355V12.8824H8.86355ZM8.86355 17.4232L8.89892 17.2263C8.24612 17.109 7.62765 16.8478 7.08844 16.4616L6.97198 16.6242L6.85552 16.7867C7.44303 17.2076 8.1169 17.4922 8.82818 17.62L8.86355 17.4232ZM6.97198 16.6242L7.08844 16.4616C6.54922 16.0753 6.10281 15.5739 5.78164 14.9936L5.60665 15.0904L5.43167 15.1873C5.78161 15.8195 6.268 16.3659 6.85552 16.7867L6.97198 16.6242ZM5.60665 15.0904L5.77513 14.9826C5.48285 14.5257 5.23448 14.0422 5.03335 13.5385L4.84761 13.6127L4.66187 13.6869C4.87236 14.214 5.13229 14.72 5.43818 15.1982L5.60665 15.0904ZM4.84761 13.6127L4.91432 13.8012C6.1847 13.3518 7.51913 13.1096 8.86644 13.0841L8.86265 12.8841L8.85887 12.6842C7.46865 12.7105 6.09173 12.9604 4.7809 13.4241L4.84761 13.6127ZM4.60087 12.9317L4.79155 12.8713C4.45219 11.7993 4.2674 10.6843 4.24276 9.56006L4.0428 9.56444L3.84285 9.56883C3.86833 10.7311 4.05937 11.8837 4.4102 12.9921L4.60087 12.9317ZM4.0428 9.56444V9.76444H8.86355V9.56444V9.36444H4.0428V9.56444ZM8.86355 9.56444H8.66355V12.1565H8.86355H9.06355V9.56444H8.86355ZM8.86355 12.1565L8.85953 11.9565C7.63115 11.9812 6.41142 12.1682 5.23207 12.5127L5.28814 12.7047L5.34422 12.8967C6.48972 12.5621 7.67444 12.3804 8.86757 12.3565L8.86355 12.1565ZM5.28814 12.7047L5.23094 12.5131C4.99588 12.5832 4.76065 12.6607 4.53246 12.7438L4.60087 12.9317L4.66928 13.1196C4.8897 13.0394 5.11744 12.9644 5.34534 12.8964L5.28814 12.7047ZM4.1747 13.8872L3.98908 13.9617C4.21648 14.5285 4.49681 15.0726 4.82637 15.5868L4.99475 15.4789L5.16314 15.371C4.84715 14.878 4.57835 14.3562 4.36031 13.8128L4.1747 13.8872ZM4.99475 15.4789L4.82593 15.5861C5.14692 16.0915 5.52811 16.556 5.96111 16.9694L6.09923 16.8247L6.23734 16.6801C5.82776 16.289 5.4672 15.8497 5.16357 15.3717L4.99475 15.4789ZM6.09923 16.8247L6.17552 16.6398C4.99604 16.1531 3.94836 15.3943 3.118 14.4255L2.96614 14.5557L2.81429 14.6858C3.68569 15.7025 4.78515 16.4988 6.02293 17.0096L6.09923 16.8247ZM2.96614 14.5557L3.07783 14.7216C3.45149 14.47 3.84587 14.2508 4.2567 14.0661L4.1747 13.8836L4.09269 13.7012C3.66118 13.8952 3.24694 14.1256 2.85446 14.3897L2.96614 14.5557ZM8.86355 0.973591H8.66355V5.51441H8.86355H9.06355V0.973591H8.86355ZM8.86355 5.51441L8.86734 5.31444C7.52003 5.28894 6.1856 5.0468 4.91522 4.59732L4.84851 4.78587L4.78179 4.97441C6.09263 5.43821 7.46955 5.68806 8.85977 5.71437L8.86355 5.51441ZM4.84851 4.78587L5.03424 4.86003C5.23538 4.35633 5.48374 3.87281 5.77603 3.41593L5.60755 3.30815L5.43908 3.20037C5.13319 3.67852 4.87326 4.18455 4.66277 4.7117L4.84851 4.78587ZM5.60755 3.30815L5.78254 3.405C6.10371 2.82469 6.55012 2.32321 7.08933 1.937L6.97287 1.7744L6.85641 1.61181C6.2689 2.03262 5.78251 2.57901 5.43256 3.2113L5.60755 3.30815ZM6.97287 1.7744L7.08933 1.937C7.62855 1.55079 8.24702 1.28954 8.89982 1.17223L8.86445 0.975385L8.82908 0.778538C8.1178 0.90635 7.44393 1.191 6.85641 1.61181L6.97287 1.7744ZM4.99475 2.91786L4.82625 2.81013C4.49639 3.32607 4.21605 3.87203 3.98896 4.44074L4.1747 4.51491L4.36043 4.58907C4.57818 4.04378 4.84698 3.52029 5.16326 3.02559L4.99475 2.91786ZM4.1747 4.51491L4.2567 4.33249C3.84586 4.14781 3.45149 3.92852 3.07783 3.67698L2.96614 3.84289L2.85446 4.0088C3.24693 4.27301 3.66117 4.50334 4.09269 4.69732L4.1747 4.51491ZM2.96614 3.84289L3.11806 3.97298C3.94822 3.00352 4.99592 2.24415 6.17558 1.75689L6.09923 1.57203L6.02287 1.38718C4.7849 1.89853 3.68543 2.69543 2.81423 3.71281L2.96614 3.84289ZM6.09923 1.57203L5.96111 1.42739C5.52813 1.84083 5.14695 2.3053 4.82594 2.81062L4.99475 2.91786L5.16357 3.02511C5.46722 2.54712 5.82779 2.10776 6.23735 1.71668L6.09923 1.57203ZM4.60177 5.46775L4.5327 5.65545C4.76118 5.73953 4.99595 5.81717 5.23163 5.8866L5.28814 5.69475L5.34466 5.5029C5.11737 5.43594 4.89097 5.36106 4.67084 5.28006L4.60177 5.46775ZM5.28814 5.69475L5.23206 5.88672C6.41141 6.23124 7.63115 6.41825 8.85954 6.44291L8.86355 6.24295L8.86756 6.04299C7.67444 6.01904 6.48972 5.83739 5.34422 5.50277L5.28814 5.69475ZM8.86355 6.24295H8.66355V8.83501H8.86355H9.06355V6.24295H8.86355ZM8.86355 8.83501V8.63501H4.0437V8.83501V9.03501H8.86355V8.83501ZM4.0437 8.83501L4.24365 8.83939C4.2683 7.71516 4.45309 6.60018 4.79245 5.52811L4.60177 5.46775L4.41109 5.40739C4.06027 6.51571 3.86923 7.66838 3.84375 8.83062L4.0437 8.83501Z" fill="var(--stroke-0, #282D34)" mask="url(#path-1-outside-1_0_1291)"/>
</g>
</svg>
