<svg preserveAspectRatio="none" width="100%" height="100%" overflow="visible" style="display: block;" viewBox="0 0 7.63077 9.45021" fill="none" xmlns="http://www.w3.org/2000/svg">
<path id="lock" d="M6.15385 2.83061V2.1002C6.15385 0.810849 5.10967 0 3.82031 0C2.53096 0 1.47692 0.810849 1.47692 2.1002V2.83061C0.522831 2.95714 0 3.58978 0 4.65021V7.60405C0 8.79445 0.655754 9.45021 1.84615 9.45021H5.78461C6.97501 9.45021 7.63077 8.79445 7.63077 7.60405V4.65021C7.63077 3.59027 7.10794 2.95763 6.15385 2.83061ZM3.82031 0.738462C4.70253 0.738462 5.41538 1.21799 5.41538 2.1002V2.80405H2.21538V2.1002C2.21538 1.21799 2.9381 0.738462 3.82031 0.738462ZM6.89231 7.60405C6.89231 8.38042 6.56098 8.71175 5.78461 8.71175H1.84615C1.06978 8.71175 0.738462 8.38042 0.738462 7.60405V4.65021C0.738462 3.87384 1.06978 3.54251 1.84615 3.54251H5.78461C6.56098 3.54251 6.89231 3.87384 6.89231 4.65021V7.60405ZM4.44062 5.63482C4.44062 5.83765 4.33625 6.00901 4.18462 6.12076V7.11175C4.18462 7.31556 4.0192 7.48098 3.81538 7.48098C3.61157 7.48098 3.44615 7.31556 3.44615 7.11175V6.10838C3.30437 5.99564 3.20733 5.82928 3.20733 5.63482C3.20733 5.29513 3.48062 5.01944 3.82031 5.01944H3.82524C4.16493 5.01944 4.44062 5.29513 4.44062 5.63482Z" fill="var(--fill-0, #282D34)"/>
</svg>
