<svg preserveAspectRatio="none" width="100%" height="100%" overflow="visible" style="display: block;" viewBox="0 0 20 20" fill="none" xmlns="http://www.w3.org/2000/svg">
<g id="Frame">
<g id="Vector">
</g>
<path id="Vector (Stroke)" d="M17.7334 11C17.7332 9.49056 16.5095 8.2666 15 8.2666V7.06738C17.1722 7.06738 18.9334 8.82782 18.9336 11C18.9336 13.1723 17.1723 14.9336 15 14.9336V13.7334C16.5096 13.7334 17.7334 12.5096 17.7334 11Z" fill="var(--fill-0, #282D34)"/>
<g id="Vector_2">
</g>
<path id="Vector (Stroke)_2" d="M1.06738 11C1.06756 8.82793 2.82794 7.06756 5 7.06738V8.2666C3.49068 8.26678 2.26678 9.49067 2.2666 11C2.2666 12.5095 3.49057 13.7332 5 13.7334V14.9336C2.82783 14.9334 1.06738 13.1722 1.06738 11Z" fill="var(--fill-0, #282D34)"/>
<path id="Vector (Stroke)_3" d="M14.4004 12.334V7.66699C14.4004 5.23694 12.43 3.2666 10 3.2666C7.56995 3.2666 5.59961 5.23694 5.59961 7.66699V14.334C5.59943 14.6652 5.33126 14.9336 5 14.9336C4.66874 14.9336 4.40057 14.6652 4.40039 14.334V7.66699C4.40039 4.5742 6.90721 2.06738 10 2.06738C13.0928 2.06738 15.5996 4.5742 15.5996 7.66699V12.334C15.5994 15.4266 13.0927 17.9336 10 17.9336C9.66874 17.9336 9.40057 17.6652 9.40039 17.334C9.40039 17.0026 9.66863 16.7334 10 16.7334C12.4299 16.7334 14.4002 14.7639 14.4004 12.334Z" fill="var(--fill-0, #282D34)"/>
</g>
</svg>
