<svg preserveAspectRatio="none" width="100%" height="100%" overflow="visible" style="display: block;" viewBox="0 0 12.7502 8.62438" fill="none" xmlns="http://www.w3.org/2000/svg">
<path id="Outlined" d="M7.79238 0.394222C8.03048 0.168605 8.4127 0.16858 8.65078 0.394222L12.3432 3.89422C12.4066 3.95435 12.4543 4.02491 12.4848 4.10125C12.5062 4.15472 12.5196 4.2125 12.5238 4.27215C12.5257 4.29882 12.5257 4.32556 12.5238 4.35223C12.5196 4.41188 12.5062 4.46966 12.4848 4.52313C12.4543 4.59947 12.4066 4.67003 12.3432 4.73016L8.65078 8.23016C8.4127 8.4558 8.03048 8.45578 7.79238 8.23016C7.54973 8.00015 7.54973 7.62424 7.79238 7.39422L10.4232 4.90008H0.837305C0.507222 4.90008 0.225 4.64412 0.225 4.31219C0.225 3.98026 0.507222 3.7243 0.837305 3.7243H10.4232L7.79238 1.23016C7.54973 1.00015 7.54973 0.624235 7.79238 0.394222Z" fill="var(--fill-0, white)" stroke="var(--stroke-0, white)" stroke-width="0.45"/>
</svg>
