<svg preserveAspectRatio="none" width="100%" height="100%" overflow="visible" style="display: block;" viewBox="0 0 16 16" fill="none" xmlns="http://www.w3.org/2000/svg">
<path id="Rectangle 376714879 (Stroke)" d="M14 14.7998V16H2V14.7998H14ZM14.7998 14V2C14.7998 1.55817 14.4418 1.2002 14 1.2002H2C1.55817 1.2002 1.2002 1.55817 1.2002 2V14C1.2002 14.4418 1.55817 14.7998 2 14.7998V16C0.895431 16 0 15.1046 0 14V2C0 0.895431 0.895431 0 2 0H14C15.1046 0 16 0.895431 16 2V14C16 15.1046 15.1046 16 14 16V14.7998C14.4418 14.7998 14.7998 14.4418 14.7998 14Z" fill="var(--fill-0, #282D34)"/>
</svg>
