<svg preserveAspectRatio="none" width="100%" height="100%" overflow="visible" style="display: block;" viewBox="0 0 7.54235 6.61719" fill="none" xmlns="http://www.w3.org/2000/svg">
<path id="Subtract (Stroke)" d="M3.07324 0.00878906C4.50873 0.103 5.5201 0.885562 6.20312 1.81836C6.91937 2.79655 7.3004 3.96842 7.49902 4.79199L7.53223 4.97754C7.63935 5.89257 6.8805 6.61701 6.00977 6.61719H1.78027V5.41797C1.89342 5.41797 1.98255 5.37249 2.03613 5.31543C2.0862 5.26203 2.11 5.19453 2.09766 5.1123C1.94848 4.12089 1.54698 2.62604 0.505859 1.53711L0 1.00781L0.618164 0.615234C1.21822 0.234498 1.93584 2.81891e-05 2.78027 0L3.07324 0.00878906ZM2.78027 1.19922C2.45287 1.19923 2.15836 1.24785 1.8916 1.33301C2.79384 2.57547 3.14623 4.01092 3.28516 4.93457C3.31057 5.10403 3.30509 5.26589 3.27734 5.41797H6.00977L6.0957 5.4082C6.17575 5.39065 6.23903 5.3501 6.28027 5.30176C6.31911 5.25621 6.3413 5.20165 6.34082 5.13867L6.33301 5.07324C6.15024 4.31538 5.81498 3.32027 5.23438 2.52734C4.66609 1.75132 3.89065 1.19922 2.78027 1.19922Z" fill="var(--fill-0, #282D34)"/>
</svg>
