<svg preserveAspectRatio="none" width="100%" height="100%" overflow="visible" style="display: block;" viewBox="0 0 20 20" fill="none" xmlns="http://www.w3.org/2000/svg">
<g id="side-nav-1">
<path id="Icon (Stroke)" d="M4.1495 17.0011V15.8507H2.99911C2.66773 15.8507 2.3995 15.5815 2.3995 15.2501C2.39974 14.9189 2.66788 14.6505 2.99911 14.6505H4.1495V13.5001C4.14963 13.1689 4.41791 12.9006 4.74911 12.9005C5.0804 12.9005 5.34956 13.1688 5.34969 13.5001V14.6505H6.49911C6.83033 14.6505 7.09945 14.9189 7.09969 15.2501C7.09969 15.5815 6.83048 15.8507 6.49911 15.8507H5.34969V17.0011C5.34952 17.3323 5.08037 17.6007 4.74911 17.6007C4.41794 17.6006 4.14967 17.3322 4.1495 17.0011ZM10.4151 3.52645C10.599 3.45732 10.8016 3.4572 10.9854 3.52645L11.0753 3.56649L11.1524 3.61336C11.3214 3.73144 11.4028 3.89663 11.4347 3.962C11.482 4.05894 11.5289 4.18341 11.5733 4.29891L12.4737 6.64071C12.6821 7.18258 12.7532 7.35442 12.8526 7.49422C12.9498 7.6308 13.0696 7.74963 13.2061 7.84676C13.346 7.94618 13.5176 8.0172 14.0597 8.22567L16.4005 9.12606C16.5161 9.17053 16.6413 9.21834 16.7384 9.26571C16.804 9.29774 16.9683 9.37882 17.086 9.54696L17.1339 9.62508L17.1739 9.71493C17.2545 9.92917 17.2413 10.1695 17.1339 10.3751C17.0179 10.597 16.8133 10.6979 16.7384 10.7345C16.6413 10.7818 16.5161 10.8287 16.4005 10.8731L14.0597 11.7735C13.5179 11.9819 13.3459 12.0531 13.2061 12.1524C13.0695 12.2496 12.9498 12.3693 12.8526 12.5059C12.7532 12.6457 12.6821 12.8175 12.4737 13.3595L11.5733 15.7003C11.5289 15.8159 11.482 15.9411 11.4347 16.0382C11.3981 16.113 11.2973 16.3176 11.0753 16.4337C10.8404 16.5564 10.5602 16.5563 10.3253 16.4337C10.1034 16.3178 10.0025 16.1132 9.9659 16.0382C9.91853 15.9411 9.87073 15.8159 9.82625 15.7003L8.92586 13.3595C8.71741 12.8175 8.64637 12.6458 8.54696 12.5059C8.44983 12.3694 8.33098 12.2496 8.19442 12.1524C8.05462 12.053 7.88273 11.9819 7.3409 11.7735L4.99911 10.8731C4.8836 10.8287 4.75915 10.7818 4.66219 10.7345C4.58757 10.698 4.38286 10.5973 4.26668 10.3751C4.14392 10.1401 4.14395 9.86006 4.26668 9.62508L4.31356 9.54696C4.43159 9.3783 4.59684 9.2976 4.66219 9.26571C4.75922 9.21836 4.88351 9.17052 4.99911 9.12606L7.3409 8.22567C7.88255 8.01734 8.05464 7.94615 8.19442 7.84676C8.33078 7.74972 8.44993 7.63059 8.54696 7.49422C8.64636 7.35443 8.71749 7.18247 8.92586 6.64071L9.82625 4.29891C9.8707 4.18336 9.91857 4.05898 9.9659 3.962C10.0024 3.8872 10.1031 3.68254 10.3253 3.56649L10.4151 3.52645ZM10.046 7.07137C9.85962 7.55591 9.73305 7.89761 9.52547 8.18954C9.3506 8.43546 9.13565 8.65039 8.88973 8.82528C8.59783 9.03283 8.25603 9.15946 7.77157 9.34579L6.06942 10.0001L7.77157 10.6544C8.25597 10.8407 8.59786 10.9673 8.88973 11.1749C9.1356 11.3498 9.35063 11.5647 9.52547 11.8106C9.733 12.1026 9.85962 12.4443 10.046 12.9288L10.6993 14.628L11.3536 12.9288C11.54 12.4442 11.6675 12.1026 11.8751 11.8106C12.05 11.5647 12.2649 11.3498 12.5108 11.1749C12.8028 10.9673 13.1444 10.8408 13.629 10.6544L15.3292 10.0001L13.629 9.34579C13.1445 9.15943 12.8027 9.0328 12.5108 8.82528C12.2649 8.65043 12.05 8.43541 11.8751 8.18954C11.6675 7.89758 11.54 7.55598 11.3536 7.07137L10.6993 5.3702L10.046 7.07137ZM4.1495 6.49911V5.34969H2.99911C2.66773 5.34969 2.3995 5.08048 2.3995 4.74911C2.39961 4.41783 2.6678 4.1495 2.99911 4.1495H4.1495V2.99911C4.1495 2.6678 4.41783 2.39961 4.74911 2.3995C5.08048 2.3995 5.34969 2.66773 5.34969 2.99911V4.1495H6.49911C6.83041 4.1495 7.09958 4.41783 7.09969 4.74911C7.09969 5.08048 6.83048 5.34969 6.49911 5.34969H5.34969V6.49911C5.34969 6.83048 5.08048 7.09969 4.74911 7.09969C4.41783 7.09958 4.1495 6.83041 4.1495 6.49911Z" fill="var(--fill-0, #282D34)"/>
</g>
</svg>
