<svg preserveAspectRatio="none" width="100%" height="100%" overflow="visible" style="display: block;" viewBox="0 0 16 16" fill="none" xmlns="http://www.w3.org/2000/svg">
<g id="Frame">
<path id="Vector (Stroke)" d="M10.5703 13.0005V14.12H5.42969V13.0005H10.5703ZM5.42969 1.8802H10.5703C11.2082 1.8802 11.7985 2.2179 12.1219 2.7677L14.6633 7.08723C14.9946 7.65052 14.9946 8.34971 14.6633 8.91301L12.1219 13.2325C11.7985 13.7823 11.2082 14.12 10.5703 14.12V13.0005C10.8112 13.0005 11.0348 12.873 11.157 12.6654L13.6977 8.34504C13.8228 8.13224 13.8228 7.868 13.6977 7.6552L11.157 3.33566C11.0349 3.12796 10.8113 3.00051 10.5703 3.00051H5.42969C5.18872 3.00051 4.96593 3.12797 4.84375 3.33566L2.30234 7.6552C2.17716 7.868 2.17716 8.13223 2.30234 8.34504L4.84375 12.6654C4.96598 12.8728 5.18888 13.0005 5.42969 13.0005V14.12L5.31094 14.1161C4.75869 14.0797 4.25367 13.7908 3.94219 13.3333L3.87813 13.2325L1.33672 8.91301C1.00535 8.34969 1.00535 7.65054 1.33672 7.08723L3.87813 2.7677C4.18138 2.25217 4.7192 1.92309 5.31094 1.8841L5.42969 1.8802Z" fill="var(--fill-0, #282D34)"/>
<path id="Vector (Stroke)_2" d="M9.23984 8.00002C9.23984 7.3152 8.68482 6.76018 8 6.76018C7.31518 6.76018 6.76016 7.3152 6.76016 8.00002C6.76016 8.68484 7.31518 9.23986 8 9.23986C8.68482 9.23986 9.23984 8.68484 9.23984 8.00002ZM10.3602 8.00002C10.3602 9.3034 9.30338 10.3602 8 10.3602C6.69662 10.3602 5.63984 9.3034 5.63984 8.00002C5.63984 6.69664 6.69662 5.63986 8 5.63986C9.30338 5.63986 10.3602 6.69664 10.3602 8.00002Z" fill="var(--fill-0, #282D34)"/>
</g>
</svg>
