<svg preserveAspectRatio="none" width="100%" height="100%" overflow="visible" style="display: block;" viewBox="0 0 12.9621 7.70117" fill="none" xmlns="http://www.w3.org/2000/svg">
<path id="Subtract (Stroke)" d="M6.92833 0.0117188C9.11341 0.127978 10.5539 1.09549 11.4742 2.30762C12.4335 3.57125 12.8012 5.06193 12.9449 6.01758C13.0887 6.97543 12.3086 7.70095 11.441 7.70117H1.52111C0.65381 7.70079 -0.126613 6.97548 0.0172 6.01758C0.160965 5.06193 0.528664 3.57125 1.4879 2.30762C2.4696 1.01465 4.04319 2.7895e-05 6.48107 0L6.92833 0.0117188ZM6.48107 1.19922C4.43194 1.19924 3.20707 2.02812 2.44396 3.0332C1.65892 4.0673 1.33496 5.32974 1.2047 6.19531C1.19232 6.27765 1.21635 6.34494 1.26622 6.39844C1.31969 6.45561 1.40837 6.50183 1.52111 6.50195H11.441L11.5211 6.49316C11.5959 6.47769 11.6559 6.44215 11.6959 6.39941C11.746 6.3459 11.7699 6.27791 11.7574 6.19531C11.6272 5.32972 11.3032 4.0673 10.5182 3.0332C9.75508 2.02813 8.53022 1.19922 6.48107 1.19922Z" fill="var(--fill-0, #282D34)"/>
</svg>
