<svg preserveAspectRatio="none" width="100%" height="100%" overflow="visible" style="display: block;" viewBox="0 0 12.5509 13" fill="none" xmlns="http://www.w3.org/2000/svg">
<path id="Union" fill-rule="evenodd" clip-rule="evenodd" d="M9.26609 8.623L12.3601 11.8409C12.6219 12.1132 12.6132 12.5472 12.3412 12.809C12.2131 12.9322 12.0445 13 11.8667 13C11.6789 13 11.5037 12.9254 11.3733 12.7901L8.25582 9.5477C7.37061 10.1698 6.33523 10.4975 5.24874 10.4975C2.35463 10.4975 0 8.14286 0 5.24874C0 2.35463 2.35463 0 5.24874 0C8.14286 0 10.4975 2.35463 10.4975 5.24874C10.4975 6.48745 10.0616 7.67732 9.26609 8.623ZM9.12812 5.24877C9.12812 3.10957 7.38782 1.36927 5.24862 1.36927C3.10941 1.36927 1.36911 3.10957 1.36911 5.24877C1.36911 7.38798 3.10941 9.12828 5.24862 9.12828C7.38782 9.12828 9.12812 7.38798 9.12812 5.24877Z" fill="var(--fill-0, #C2C7D0)"/>
</svg>
