<svg preserveAspectRatio="none" width="100%" height="100%" overflow="visible" style="display: block;" viewBox="0 0 20 20" fill="none" xmlns="http://www.w3.org/2000/svg">
<g id="wallet">
<path id="wallet_2" d="M15.625 5.8725V5.625C15.625 3.61 14.515 2.5 12.5 2.5H4.16667C2.9025 2.5 1.875 3.5275 1.875 4.79167V14.7917C1.875 16.8067 2.985 17.9167 5 17.9167H15C17.015 17.9167 18.125 16.8067 18.125 14.7917V8.95833C18.125 7.1625 17.2433 6.08583 15.625 5.8725ZM16.875 12.9167H15.3125C14.5083 12.9167 13.8542 12.2625 13.8542 11.4583C13.8542 10.6542 14.5083 10 15.3125 10H16.875V12.9167ZM4.16667 3.75H12.5C13.8142 3.75 14.375 4.31083 14.375 5.625V5.83333H4.16667C3.5925 5.83333 3.125 5.36583 3.125 4.79167C3.125 4.2175 3.5925 3.75 4.16667 3.75ZM15 16.6667H5C3.68583 16.6667 3.125 16.1058 3.125 14.7917V6.83248C3.4375 6.99248 3.79167 7.08333 4.16667 7.08333H15C16.3142 7.08333 16.875 7.64417 16.875 8.95833V8.75H15.3125C13.8192 8.75 12.6042 9.965 12.6042 11.4583C12.6042 12.9517 13.8192 14.1667 15.3125 14.1667H16.875V14.7917C16.875 16.1058 16.3142 16.6667 15 16.6667Z" fill="var(--fill-0, #282D34)"/>
</g>
</svg>
