<svg preserveAspectRatio="none" width="100%" height="100%" overflow="visible" style="display: block;" viewBox="0 0 16 16" fill="none" xmlns="http://www.w3.org/2000/svg">
<g id="Frame" clip-path="url(#clip0_14105_126844)">
<path id="Vector" d="M8.00016 0.700358C10.0162 0.700358 11.8405 1.51625 13.1623 2.83805C14.4841 4.15988 15.3 5.98416 15.3 8.00016C15.3 10.0162 14.4841 11.8405 13.1623 13.1623C11.8405 14.4841 10.0162 15.3 8.00016 15.3C5.98416 15.3 4.15988 14.4841 2.83805 13.1623C1.51625 11.8405 0.700358 10.0162 0.700358 8.00016C0.700358 5.98415 1.51625 4.15988 2.83805 2.83805C4.15988 1.51625 5.98415 0.700358 8.00016 0.700358Z" stroke="var(--stroke-0, #282D34)" stroke-width="1.4" stroke-linejoin="round"/>
<path id="Vector_2" fill-rule="evenodd" clip-rule="evenodd" d="M8 3.66667C8.46023 3.66667 8.83333 4.03977 8.83333 4.5C8.83333 4.96023 8.46023 5.33333 8 5.33333C7.53977 5.33333 7.16667 4.96023 7.16667 4.5C7.16667 4.03977 7.53977 3.66667 8 3.66667Z" fill="var(--fill-0, #282D34)"/>
<path id="Vector_3" d="M8.16667 11.3333V6.66667H7.83333H7.5" stroke="var(--stroke-0, #282D34)" stroke-width="1.4" stroke-linecap="round" stroke-linejoin="round"/>
<path id="Vector_4" d="M7 11.3333H9.33333" stroke="var(--stroke-0, #282D34)" stroke-width="1.4" stroke-linecap="round" stroke-linejoin="round"/>
</g>
<defs>
<clipPath id="clip0_14105_126844">
<rect width="16" height="16" fill="white"/>
</clipPath>
</defs>
</svg>
