<svg width="48" height="48" viewBox="0 0 48 48" fill="none" xmlns="http://www.w3.org/2000/svg">
<rect width="48" height="48" rx="9.6" fill="#031F45"/>
<path d="M28.3404 18.3163V14.208C28.3404 13.6981 28.6986 13.3125 29.1917 13.3125L32.0302 13.282C32.5675 13.282 32.9564 13.6524 32.9564 14.2091V18.3186H35.4366C35.898 18.3092 36.2789 18.689 36.288 19.1684V21.2231C36.288 21.7013 35.9105 22.0893 35.448 22.0881C35.4446 22.0881 35.4401 22.0881 35.4366 22.0881H32.9564V27.7425C32.9564 28.6145 33.2069 29.2029 33.717 29.5733C34.201 29.925 34.9175 30.0785 35.8765 30.0891C35.9139 30.0891 36.3186 30.0891 36.3571 30.0891C36.7255 30.0891 37.2685 30.6599 37.2685 31.0936V33.5656C37.2685 33.9571 36.6587 34.508 36.3571 34.508C36.3367 34.508 35.949 34.508 35.9286 34.508C34.9571 34.5045 34.0446 34.4247 33.1797 34.2396C32.3635 34.0649 31.5904 33.7965 30.8513 33.4109C29.2971 32.608 28.3415 31.0162 28.3415 28.9158V22.0881H26.7092C26.4484 22.0881 26.1503 22.1245 25.9077 22.012C25.8295 22.1655 25.7501 22.3179 25.6719 22.4703L25.4214 22.9555C25.3137 23.1642 25.206 23.3728 25.0983 23.5814C24.9702 23.8287 24.8421 24.0761 24.7152 24.3234C24.5712 24.6024 24.4272 24.8801 24.2833 25.1591C24.1268 25.4615 23.9715 25.7628 23.8151 26.0652C23.6507 26.3828 23.4875 26.7005 23.3231 27.0181C23.1554 27.3428 22.9876 27.6686 22.8187 27.9933C22.6509 28.318 22.4831 28.6438 22.3154 28.9685C22.1476 29.2932 21.9878 29.6026 21.8234 29.9203C21.659 30.2379 21.5117 30.5227 21.3564 30.8252C21.2124 31.1029 21.0696 31.3807 20.9256 31.6585C20.7986 31.9047 20.6705 32.152 20.5436 32.3981C20.4359 32.6056 20.3293 32.8131 20.2216 33.0205C20.1389 33.1811 20.0561 33.3417 19.9734 33.5023C19.919 33.6078 19.8646 33.7133 19.809 33.8199L19.741 33.9512C19.5766 34.3064 19.3374 34.4916 19.0087 34.4916C18.68 34.4763 18.426 34.3064 18.2469 33.9817L10.2529 19.3208C9.93887 18.7183 10.1327 18.3163 10.7755 18.3163H14.2714C14.8541 18.3163 15.2871 18.6093 15.5558 19.1965L18.977 27.0439L22.2791 19.166C22.4888 18.594 22.8765 18.3163 23.4444 18.3163H28.3404Z" fill="white"/>
<path fill-rule="evenodd" clip-rule="evenodd" d="M38.4689 32.2949C38.4689 33.5151 37.5122 34.5044 36.3321 34.5044C35.1521 34.5044 34.1953 33.5151 34.1953 32.2949C34.1953 31.0747 35.1521 30.0854 36.3321 30.0854C37.5122 30.0854 38.4689 31.0747 38.4689 32.2949Z" fill="#00F0FF"/>
</svg>
