<svg width="48" height="48" viewBox="0 0 48 48" fill="none" xmlns="http://www.w3.org/2000/svg">
<rect width="48" height="48" rx="9.6" fill="#222222"/>
<path d="M20.799 16H7.99902V22.4H14.399V32H20.799V16ZM33.599 32H26.1324L32.5324 16H39.999L33.599 32ZM26.1324 22.4C26.9811 22.4 27.795 22.0629 28.3951 21.4627C28.9952 20.8626 29.3324 20.0487 29.3324 19.2C29.3324 18.3513 28.9952 17.5374 28.3951 16.9373C27.795 16.3371 26.9811 16 26.1324 16C25.2837 16 24.4697 16.3371 23.8696 16.9373C23.2695 17.5374 22.9324 18.3513 22.9324 19.2C22.9324 20.0487 23.2695 20.8626 23.8696 21.4627C24.4697 22.0629 25.2837 22.4 26.1324 22.4Z" fill="white"/>
</svg>
