<svg width="20" height="20" viewBox="0 0 20 20" fill="none" xmlns="http://www.w3.org/2000/svg">
<path d="M10.6145 2.06503C10.3625 1.53214 9.63766 1.53409 9.38829 2.06834L7.37106 6.39011C7.27173 6.60291 7.07871 6.75051 6.85528 6.78452L2.25299 7.48498C1.69264 7.57027 1.46834 8.29266 1.87321 8.70812L5.21056 12.1327C5.37191 12.2983 5.44502 12.5368 5.40595 12.77L4.6155 17.4885C4.51683 18.0775 5.10759 18.5272 5.61035 18.2459L9.67665 15.9706C9.87764 15.8581 10.1188 15.8581 10.3198 15.9706L14.3893 18.2472C14.8917 18.5283 15.4821 18.0793 15.3842 17.4907L14.5991 12.7692C14.5604 12.5364 14.6334 12.2985 14.7942 12.1332L18.1274 8.70691C18.5315 8.29146 18.3075 7.56996 17.7477 7.48429L13.1749 6.78442C12.9529 6.75045 12.7609 6.60431 12.6612 6.3934L10.6145 2.06503Z" fill="#E7E8EB"/>
</svg>
