<svg width="20" height="20" viewBox="0 0 20 20" fill="none" xmlns="http://www.w3.org/2000/svg">
<path opacity="0.8" d="M15.9472 4.86733C16.2412 4.57333 16.243 4.09396 15.9257 3.82538C15.2116 3.22115 14.4072 2.73013 13.5402 2.37102C12.441 1.9157 11.2628 1.68136 10.073 1.68136C8.88325 1.68136 7.70511 1.9157 6.60589 2.37102C5.73892 2.73013 4.93444 3.22115 4.22041 3.82538C3.90303 4.09396 3.90492 4.57333 4.19892 4.86733C4.49291 5.16132 4.96741 5.15799 5.2892 4.89471C5.8603 4.42743 6.49785 4.04548 7.18208 3.76206C8.09863 3.38241 9.08098 3.18701 10.073 3.18701C11.0651 3.18701 12.0475 3.38242 12.964 3.76206C13.6482 4.04548 14.2858 4.42743 14.8569 4.89471C15.1787 5.158 15.6532 5.16133 15.9472 4.86733Z" fill="#FFCE2C"/>
<path opacity="0.8" d="M3.9164 5.16785C3.60708 4.88786 3.12651 4.9099 2.87325 5.24146C1.74398 6.71991 1.09332 8.51595 1.0202 10.3871C0.947076 12.2583 1.4556 14.0996 2.46606 15.6617C2.69267 16.012 3.17005 16.0715 3.50028 15.8165C3.83051 15.5615 3.88787 15.0888 3.66713 14.7347C2.87011 13.4563 2.47066 11.963 2.52993 10.4461C2.58921 8.92925 3.10397 7.47164 3.99833 6.25932C4.24602 5.92358 4.22572 5.44783 3.9164 5.16785Z" fill="#00B565"/>
<path opacity="0.8" d="M16.6994 15.7295C17.0378 15.9842 17.5216 15.9179 17.7468 15.5593C18.739 13.9792 19.2225 12.125 19.1206 10.2496C19.0186 8.37409 18.3369 6.58328 17.1792 5.12006C16.9164 4.78797 16.4283 4.77455 16.1196 5.06442C15.8109 5.3543 15.7992 5.83743 16.0562 6.17401C16.9695 7.37024 17.507 8.81829 17.5893 10.3328C17.6717 11.8473 17.2944 13.3451 16.5161 14.6333C16.2971 14.9958 16.3611 15.4748 16.6994 15.7295Z" fill="#FF2C40"/>
<circle cx="9.99969" cy="10.6667" r="1.33333" fill="#7A8699" stroke="#7A8699" stroke-width="1.33333"/>
<path d="M2.9502 14.7877C2.64857 14.9988 2.57522 15.4145 2.78637 15.7161C2.99752 16.0178 3.41321 16.0911 3.71484 15.88L3.33252 15.3338L2.9502 14.7877ZM9.99919 10.667L9.61687 10.1208L2.9502 14.7877L3.33252 15.3338L3.71484 15.88L10.3815 11.2131L9.99919 10.667Z" fill="#7A8699"/>
<path d="M6.66669 17.3337L13.3334 17.3337" stroke="#C2C7D0" stroke-width="1.33333"/>
</svg>
