<svg width="20" height="20" viewBox="0 0 20 20" fill="none" xmlns="http://www.w3.org/2000/svg">
<g clip-path="url(#clip0_3073_7615)">
<path d="M11.9911 1.0415C12.221 1.04166 12.432 1.16813 12.5409 1.37061L13.7069 3.5415H18.3339C18.6789 3.54168 18.9589 3.82143 18.9589 4.1665C18.9589 4.51157 18.6789 4.79133 18.3339 4.7915H16.8749V18.3335C16.8747 18.6785 16.5949 18.9585 16.2499 18.9585H3.74988C3.40497 18.9583 3.12505 18.6784 3.12488 18.3335V4.7915H1.66687C1.32169 4.7915 1.04187 4.51168 1.04187 4.1665C1.04187 3.82133 1.32169 3.5415 1.66687 3.5415H6.29675L7.48914 1.36572C7.59884 1.1658 7.80894 1.04161 8.03699 1.0415H11.9911ZM4.37488 17.7085H15.6249V4.7915H4.37488V17.7085ZM8.33386 7.7085C8.67891 7.70864 8.95886 7.98841 8.95886 8.3335V13.7505C8.95862 14.0954 8.67876 14.3753 8.33386 14.3755C7.98883 14.3755 7.7091 14.0955 7.70886 13.7505V8.3335C7.70886 7.98832 7.98868 7.7085 8.33386 7.7085ZM11.6669 7.7085C12.012 7.7085 12.2919 7.98832 12.2919 8.3335V13.7505C12.2916 14.0955 12.0119 14.3755 11.6669 14.3755C11.3218 14.3755 11.0421 14.0955 11.0419 13.7505V8.3335C11.0419 7.98832 11.3217 7.7085 11.6669 7.7085ZM7.72253 3.5415H12.288L11.6171 2.2915H8.4071L7.72253 3.5415Z" fill="#7A8699"/>
</g>
<defs>
<clipPath id="clip0_3073_7615">
<rect width="20" height="20" fill="white"/>
</clipPath>
</defs>
</svg>
