<svg width="14" height="14" viewBox="0 0 14 14" fill="none" xmlns="http://www.w3.org/2000/svg">
<path fill-rule="evenodd" clip-rule="evenodd" d="M5.37958 2.46304C5.37958 3.17896 4.7992 3.75934 4.08328 3.75934C3.36737 3.75934 2.78699 3.17896 2.78699 2.46304C2.78699 1.74712 3.36737 1.16675 4.08328 1.16675C4.7992 1.16675 5.37958 1.74712 5.37958 2.46304ZM4.08328 8.29638C4.7992 8.29638 5.37958 7.71599 5.37958 7.00008C5.37958 6.28417 4.7992 5.70379 4.08328 5.70379C3.36737 5.70379 2.78699 6.28417 2.78699 7.00008C2.78699 7.71599 3.36737 8.29638 4.08328 8.29638ZM4.08328 12.8334C4.7992 12.8334 5.37958 12.253 5.37958 11.5371C5.37958 10.8212 4.7992 10.2408 4.08328 10.2408C3.36737 10.2408 2.78699 10.8212 2.78699 11.5371C2.78699 12.253 3.36737 12.8334 4.08328 12.8334Z" fill="#7A8699"/>
<path fill-rule="evenodd" clip-rule="evenodd" d="M11.213 2.46304C11.213 3.17896 10.6326 3.75934 9.91666 3.75934C9.20075 3.75934 8.62036 3.17896 8.62036 2.46304C8.62036 1.74712 9.20075 1.16675 9.91666 1.16675C10.6326 1.16675 11.213 1.74712 11.213 2.46304ZM9.91666 8.29638C10.6326 8.29638 11.213 7.71599 11.213 7.00008C11.213 6.28417 10.6326 5.70379 9.91666 5.70379C9.20075 5.70379 8.62036 6.28417 8.62036 7.00008C8.62036 7.71599 9.20075 8.29638 9.91666 8.29638ZM9.91666 12.8334C10.6326 12.8334 11.213 12.253 11.213 11.5371C11.213 10.8212 10.6326 10.2408 9.91666 10.2408C9.20075 10.2408 8.62036 10.8212 8.62036 11.5371C8.62036 12.253 9.20075 12.8334 9.91666 12.8334Z" fill="#7A8699"/>
</svg>
