<svg width="16" height="16" viewBox="0 0 16 16" fill="none" xmlns="http://www.w3.org/2000/svg">
<path d="M4.49338 13.9897H2.58952C2.27049 13.9897 2.0029 13.7328 2.0029 13.4142V11.5029C1.97203 10.9171 2.18811 10.3417 2.61006 9.92037L10.0712 2.47014C10.699 1.84329 11.7076 1.84329 12.3353 2.47014L13.5292 3.66214C14.1569 4.28899 14.1569 5.29607 13.5292 5.92292L7.61168 11.8317C7.37498 12.0578 7.00449 12.0475 6.77808 11.8214C6.56197 11.5954 6.56197 11.2357 6.77808 11.0096L11.4503 6.34421L9.63903 4.53566L3.42311 10.7424C3.23787 10.9274 3.14524 11.1843 3.16583 11.4412C3.16583 11.4515 3.16583 11.4618 3.16583 11.4823V12.8183H4.54483C4.80211 12.8388 5.05945 12.736 5.24469 12.5511C5.4711 12.325 5.84158 12.325 6.07828 12.5511C6.30469 12.7771 6.30469 13.1471 6.07828 13.3834C5.68721 13.7739 5.16231 13.9897 4.61687 13.9897C4.57571 13.9897 4.53455 13.9897 4.49338 13.9897Z" fill="#7A8699"/>
<path d="M13.2639 12.8491H7.99475C7.67572 12.8491 7.41849 13.106 7.4082 13.4246C7.4082 13.7431 7.67572 14 7.99475 14H13.2639C13.5829 14 13.8402 13.7431 13.8505 13.4246C13.8505 13.106 13.5829 12.8491 13.2639 12.8491Z" fill="#7A8699"/>
</svg>
