<svg width="16" height="16" viewBox="0 0 16 16" fill="none" xmlns="http://www.w3.org/2000/svg">
<path fill-rule="evenodd" clip-rule="evenodd" d="M12.7374 6.40741C13.2424 6.34074 13.7694 6.5037 14.1537 6.89259C14.4721 7.21481 14.6478 7.64815 14.6478 8.1037C14.6478 8.55926 14.4721 8.99259 14.1537 9.31481C13.8243 9.64815 13.3925 9.81481 12.957 9.81481C12.7704 9.81481 12.5874 9.78518 12.408 9.72222L10.8564 12.137C11.1491 12.4519 11.3065 12.8593 11.3065 13.2889C11.3065 13.7481 11.1308 14.1778 10.8088 14.5C10.4794 14.8333 10.0439 15 9.61207 15C9.18023 15 8.74839 14.8333 8.41903 14.5C8.09698 14.1778 7.92131 13.7481 7.92131 13.2889C7.92131 12.9185 8.03842 12.563 8.258 12.2704L4.26898 7.4963C4.086 7.57037 3.89204 7.6037 3.69076 7.6037C3.23696 7.6037 2.81244 7.42593 2.49405 7.1037C1.83532 6.43704 1.83532 5.35185 2.49405 4.68148C2.81244 4.35926 3.24062 4.18148 3.69076 4.18148C4.1409 4.18148 4.56541 4.35926 4.88746 4.68148C4.9387 4.73333 4.98627 4.78889 5.03019 4.84815L9.23879 3C9.1473 2.47037 9.30466 1.91111 9.70722 1.5037C10.0256 1.18148 10.4538 1 10.9039 1C11.3541 1 11.7786 1.18148 12.1006 1.5037C12.7594 2.17037 12.7594 3.25556 12.1006 3.92593C12.0274 3.9963 11.9506 4.06296 11.8701 4.11852L12.7374 6.40741ZM9.61204 11.5777C9.81332 11.5777 10.0073 11.6111 10.1866 11.6814L11.731 9.28145C11.1015 8.61478 11.1125 7.54812 11.7603 6.89256C11.8298 6.82219 11.9066 6.75923 11.9872 6.70367L11.1162 4.41108C11.0466 4.42219 10.9734 4.42589 10.9039 4.42589C10.4501 4.42589 10.0256 4.24812 9.70719 3.92589C9.6523 3.87034 9.60106 3.81108 9.55715 3.74812L5.35587 5.59256C5.4437 6.09997 5.30829 6.64071 4.94233 7.04441L8.87645 11.7518C9.10335 11.637 9.3522 11.5777 9.61204 11.5777Z" fill="#7A8699"/>
</svg>
