<svg width="16" height="16" viewBox="0 0 16 16" fill="none" xmlns="http://www.w3.org/2000/svg">
<path d="M4.5 2.5L14 2.5" stroke="#7A8699"/>
<path d="M4.5 9C8.48277 6.41021 9.74447 5.58979 13.7272 3" stroke="#7A8699" stroke-dasharray="1.5 1.5"/>
<path d="M4.5 9.5C9.57682 9.5 6.42318 9.5 11.5 9.5" stroke="#7A8699"/>
<path d="M4.50024 13C8.60075 13 9.89974 13 14.0002 13" stroke="#7A8699"/>
<path d="M3.5 1.5C4.05228 1.5 4.5 1.94772 4.5 2.5C4.5 3.05228 4.05228 3.5 3.5 3.5C2.94772 3.5 2.5 3.05228 2.5 2.5C2.5 1.94772 2.94772 1.5 3.5 1.5Z" fill="#7A8699" stroke="#7A8699"/>
<path d="M12.5 8.5C13.0523 8.5 13.5 8.94772 13.5 9.5C13.5 10.0523 13.0523 10.5 12.5 10.5C11.9477 10.5 11.5 10.0523 11.5 9.5C11.5 8.94772 11.9477 8.5 12.5 8.5Z" fill="#7A8699" stroke="#7A8699"/>
<path d="M3.5 8.5C4.05228 8.5 4.5 8.94772 4.5 9.5C4.5 10.0523 4.05228 10.5 3.5 10.5C2.94772 10.5 2.5 10.0523 2.5 9.5C2.5 8.94772 2.94772 8.5 3.5 8.5Z" fill="#7A8699" stroke="#7A8699"/>
<path d="M3.5 11.9641C4.05228 11.9641 4.5 12.4118 4.5 12.9641C4.49999 13.5164 4.05228 13.9641 3.5 13.9641C2.94772 13.9641 2.50001 13.5164 2.5 12.9641C2.5 12.4118 2.94772 11.9641 3.5 11.9641Z" fill="#7A8699" stroke="#7A8699"/>
</svg>
