<svg width="16" height="17" viewBox="0 0 16 17" fill="none" xmlns="http://www.w3.org/2000/svg">
<path d="M3.66687 12.5605C7.25672 8.9707 8.47091 7.75672 12.0608 4.16687" stroke="#7A8699"/>
<path d="M6.6665 15.9543C10.256 12.3648 11.4708 11.1502 15.0603 7.56067" stroke="#C2C7D0"/>
<path d="M12.2926 2.41423C12.6831 2.02373 13.3163 2.02378 13.7068 2.41423C14.0974 2.80476 14.0974 3.43792 13.7068 3.82844C13.3163 4.21889 12.6831 4.21894 12.2926 3.82844C11.9022 3.43794 11.9022 2.80474 12.2926 2.41423Z" fill="#7A8699" stroke="#7A8699"/>
<path d="M1.91421 12.7929C2.30474 12.4024 2.93791 12.4024 3.32843 12.7929C3.71886 13.1834 3.71889 13.8166 3.32843 14.2071C2.93793 14.5976 2.30474 14.5975 1.91421 14.2071C1.52369 13.8166 1.52369 13.1834 1.91421 12.7929Z" fill="#7A8699" stroke="#7A8699"/>
<circle cx="11.0605" cy="11.5605" r="1.5" fill="#C2C7D0"/>
</svg>
