<svg width="16" height="16" viewBox="0 0 16 16" fill="none" xmlns="http://www.w3.org/2000/svg">
<path d="M2 2.5H14" stroke="#7A8699"/>
<path d="M2 6C6.10051 6 7.89949 6 12 6" stroke="#7A8699"/>
<path d="M2 9.5C7.07682 9.5 8.92318 9.5 14 9.5" stroke="#7A8699"/>
<path d="M4.00024 13C8.10075 13 9.89974 13 14.0002 13" stroke="#7A8699"/>
<path d="M13 5C13.5523 5 14 5.44772 14 6C14 6.55228 13.5523 7 13 7C12.4477 7 12 6.55228 12 6C12 5.44772 12.4477 5 13 5Z" fill="#7A8699" stroke="#7A8699"/>
<path d="M3 12C3.55228 12 4 12.4477 4 13C4 13.5523 3.55228 14 3 14C2.4478 13.9999 2 13.5522 2 13C2 12.4478 2.4478 12.0001 3 12Z" fill="#7A8699" stroke="#7A8699"/>
</svg>
